<svg width="25" height="25" viewBox="0 0 25 25" fill="none" xmlns="http://www.w3.org/2000/svg">
<path d="M21.875 25H3.125C2.26237 25 1.52588 24.6948 0.915528 24.0845C0.305176 23.4741 0 22.7376 0 21.875V3.125C0 2.26237 0.305176 1.52588 0.915528 0.915527C1.52588 0.305176 2.26237 0 3.125 0H21.875C22.7376 0 23.4741 0.305176 24.0845 0.915527C24.6948 1.52588 25 2.26237 25 3.125V21.875C25 22.7376 24.6948 23.4741 24.0845 24.0845C23.4741 24.6948 22.7376 25 21.875 25ZM20.044 14.5264C19.0348 14.2171 17.8223 14.0625 16.4063 14.0625C15.9994 14.0625 15.5436 14.1357 15.0391 14.2822C15.3646 16.0563 15.5599 17.8467 15.625 19.6533C16.6992 19.1813 17.6229 18.4977 18.396 17.6025C19.1691 16.7074 19.7184 15.682 20.044 14.5264ZM14.0381 20.166C13.9893 18.5221 13.794 16.7969 13.4522 14.9902C13.1429 15.1855 12.8255 15.3971 12.5 15.625C11.6374 16.2435 10.9579 16.8701 10.4614 17.5049C9.96501 18.1396 9.63542 18.8721 9.47266 19.7021C10.433 20.109 11.4421 20.3125 12.5 20.3125C13.0208 20.3125 13.5335 20.2637 14.0381 20.166ZM4.6875 12.5C4.6875 13.7858 4.98047 14.9862 5.56641 16.1011C6.15235 17.216 6.94987 18.1315 7.95899 18.8477C8.57748 16.9596 9.66798 15.4622 11.2305 14.3555C11.849 13.916 12.4675 13.5579 13.0859 13.2812C12.9395 12.6628 12.7848 12.1257 12.6221 11.6699C11.4014 12.2396 10.14 12.5163 8.8379 12.5C7.4056 12.4837 6.03842 12.207 4.73633 11.6699C4.70378 11.9629 4.6875 12.2396 4.6875 12.5ZM5.07813 10.0586C6.34766 10.6445 7.51954 10.9375 8.59376 10.9375C9.60287 10.9375 10.7259 10.6608 11.9629 10.1074C11.084 8.30078 9.80632 6.94987 8.12989 6.05469C6.64877 7.04753 5.63151 8.38216 5.07813 10.0586ZM12.5 4.6875C11.5723 4.6875 10.6445 4.86654 9.7168 5.22461C11.3932 6.10352 12.6546 7.43001 13.501 9.2041C14.9821 8.12988 15.8936 6.94173 16.2354 5.63965C15.0798 5.00488 13.8346 4.6875 12.5 4.6875ZM17.5049 6.49414C16.8701 8.23568 15.8122 9.62728 14.3311 10.6689C14.3148 10.6852 14.2415 10.734 14.1113 10.8154C14.3067 11.3688 14.502 12.0036 14.6973 12.7197C15.3809 12.5732 16.0645 12.5 16.7481 12.5C17.9199 12.5163 19.0918 12.7197 20.2637 13.1104C20.2962 12.736 20.3125 12.5326 20.3125 12.5C20.3125 11.3118 20.0643 10.1969 19.5679 9.15527C19.0715 8.11361 18.3838 7.22656 17.5049 6.49414Z" fill="black"/>
</svg>
