<svg width="50" height="51" viewBox="0 0 50 51" fill="none" xmlns="http://www.w3.org/2000/svg">
<g clip-path="url(#clip0_425_570)">
<path fill-rule="evenodd" clip-rule="evenodd" d="M3.125 25.0476C3.125 19.246 5.42968 13.682 9.53204 9.57965C13.6344 5.47729 19.1984 3.17261 25 3.17261C30.8016 3.17261 36.3656 5.47729 40.468 9.57965C44.5703 13.682 46.875 19.246 46.875 25.0476C46.875 30.8492 44.5703 36.4132 40.468 40.5156C36.3656 44.6179 30.8016 46.9226 25 46.9226C19.1984 46.9226 13.6344 44.6179 9.53204 40.5156C5.42968 36.4132 3.125 30.8492 3.125 25.0476ZM50 25.0476C50 18.4172 47.3661 12.0583 42.6777 7.36994C37.9893 2.68153 31.6304 0.0476074 25 0.0476074C18.3696 0.0476074 12.0107 2.68153 7.32233 7.36994C2.63392 12.0583 0 18.4172 0 25.0476C0 31.678 2.63392 38.0369 7.32233 42.7253C12.0107 47.4137 18.3696 50.0476 25 50.0476C31.6304 50.0476 37.9893 47.4137 42.6777 42.7253C47.3661 38.0369 50 31.678 50 25.0476ZM26.5625 35.9851C26.5625 36.3995 26.3979 36.7969 26.1049 37.09C25.8118 37.383 25.4144 37.5476 25 37.5476C24.5856 37.5476 24.1882 37.383 23.8951 37.09C23.6021 36.7969 23.4375 36.3995 23.4375 35.9851V17.882L16.7313 24.5914C16.4379 24.8848 16.0399 25.0496 15.625 25.0496C15.2101 25.0496 14.8121 24.8848 14.5187 24.5914C14.2254 24.298 14.0605 23.9 14.0605 23.4851C14.0605 23.0702 14.2254 22.6723 14.5187 22.3789L23.8937 13.0039C24.0389 12.8583 24.2113 12.7429 24.4011 12.6641C24.591 12.5854 24.7945 12.5448 25 12.5448C25.2055 12.5448 25.409 12.5854 25.5989 12.6641C25.7887 12.7429 25.9611 12.8583 26.1063 13.0039L35.4813 22.3789C35.7746 22.6723 35.9395 23.0702 35.9395 23.4851C35.9395 23.9 35.7746 24.298 35.4813 24.5914C35.1879 24.8848 34.7899 25.0496 34.375 25.0496C33.9601 25.0496 33.5621 24.8848 33.2687 24.5914L26.5625 17.882V35.9851Z" fill="#111111"/>
</g>
<defs>
<clipPath id="clip0_425_570">
<rect width="50" height="50" fill="white" transform="matrix(1 0 0 -1 0 50.0476)"/>
</clipPath>
</defs>
</svg>
