<svg width="25" height="25" viewBox="0 0 25 25" fill="none" xmlns="http://www.w3.org/2000/svg">
<path d="M9.86934 10.9514C10.1865 10.7217 10.3381 10.3405 10.3381 9.81392C10.3493 9.56586 10.2971 9.31905 10.1865 9.09673C10.0874 8.91569 9.94036 8.76542 9.76152 8.66236C9.57557 8.55044 9.36969 8.47562 9.15527 8.44204C8.92192 8.3982 8.6849 8.37675 8.44746 8.37798H5.87402V11.2983H8.65684C9.1459 11.303 9.55059 11.1858 9.86777 10.9514H9.86934Z" fill="#0E0C0C"/>
<path d="M10.3037 13.5891C9.94277 13.3156 9.46465 13.1797 8.86777 13.1797H5.87402V16.6219H8.8084C9.08184 16.6219 9.33652 16.5969 9.58027 16.5438C9.82402 16.4906 10.0443 16.4063 10.2303 16.2797C10.4162 16.1578 10.5678 15.9922 10.6787 15.7813C10.7896 15.5703 10.8443 15.2984 10.8443 14.9703C10.8443 14.3266 10.6631 13.8672 10.3021 13.5891H10.3037Z" fill="#0E0C0C"/>
<path d="M22.6562 0H2.34375C1.05469 0 0 1.05469 0 2.34375V22.6562C0 23.9453 1.05469 25 2.34375 25H22.6562C23.9453 25 25 23.9453 25 22.6562V2.34375C25 1.05469 23.9453 0 22.6562 0ZM16.3875 6.57656H21.4516V7.8125H16.3875V6.57656ZM13.2234 16.7578C12.9887 17.2079 12.6509 17.596 12.2375 17.8906C11.8065 18.1901 11.3256 18.4103 10.8172 18.5406C10.285 18.6818 9.73653 18.7522 9.18594 18.75H3.12656V6.25469H9.01562C9.61094 6.25469 10.1531 6.30781 10.6469 6.41094C11.1359 6.51406 11.5547 6.68906 11.9062 6.92813C12.2531 7.16719 12.5266 7.48438 12.7219 7.87969C12.9125 8.27031 13.0094 8.76406 13.0094 9.34531C13.0094 9.975 12.8672 10.4969 12.5797 10.9172C12.2922 11.3375 11.8719 11.6781 11.3047 11.9469C12.0766 12.1672 12.6422 12.5578 13.0187 13.1094C13.4 13.6656 13.5859 14.3344 13.5859 15.1156C13.5906 15.7547 13.4687 16.3016 13.225 16.7562L13.2234 16.7578ZM23.4234 14.825H16.8953C16.8953 15.5375 17.1391 16.2172 17.5109 16.5828C17.8828 16.9437 18.4187 17.1297 19.1172 17.1297C19.6203 17.1297 20.05 17.0031 20.4156 16.7484C20.7766 16.4953 20.9969 16.2266 21.0797 15.9484H23.2672C22.9156 17.0375 22.3828 17.8141 21.6562 18.2828C20.9391 18.7516 20.0594 18.9859 19.0391 18.9859C18.3266 18.9859 17.6859 18.8688 17.1109 18.6438C16.5598 18.4293 16.0619 18.0977 15.6516 17.6719C15.2477 17.2351 14.9353 16.7219 14.7328 16.1625C14.511 15.5441 14.4005 14.8913 14.4063 14.2344C14.4063 13.5562 14.5187 12.925 14.7391 12.3391C14.9475 11.7758 15.2691 11.2611 15.684 10.8269C16.0989 10.3926 16.5983 10.0479 17.1516 9.81406C17.7479 9.56407 18.3894 9.43961 19.0359 9.44844C19.8031 9.44844 20.4719 9.59531 21.0469 9.89688C21.6188 10.1953 22.0875 10.5953 22.4578 11.0984C22.8281 11.6016 23.0875 12.1734 23.2531 12.8172C23.4141 13.4516 23.4672 14.1203 23.4234 14.8234V14.825Z" fill="#0E0C0C"/>
<path d="M18.9594 11.3233C18.5641 11.3233 18.2313 11.3921 17.9734 11.528C17.7156 11.664 17.5047 11.8312 17.3438 12.0265C17.1901 12.2144 17.0768 12.4319 17.0109 12.6655C16.9512 12.8591 16.9134 13.0588 16.8984 13.2608H20.9422C20.8844 12.6265 20.6641 12.1577 20.3703 11.8296C20.0672 11.4968 19.5703 11.3218 18.9594 11.3218V11.3233Z" fill="#0E0C0C"/>
</svg>
