<svg width="552" height="974" viewBox="0 0 552 974" fill="none" xmlns="http://www.w3.org/2000/svg">
<g clip-path="url(#clip0_1110_18)">
<path d="M552 0H0V974H552V0Z" fill="#00325B"/>
<path d="M552 0H0V974H552V0Z" fill="#00325B"/>
<path d="M-0.000274658 974.246C119.288 974.246 215.99 756.098 215.99 487C215.99 217.902 119.288 -0.245117 -0.000274658 -0.245117C-119.288 -0.245117 -215.99 217.902 -215.99 487C-215.99 756.098 -119.288 974.246 -0.000274658 974.246Z" fill="#098480"/>
<path d="M552 974.491C671.288 974.491 767.99 756.344 767.99 487.245C767.99 218.147 671.288 0 552 0C432.712 0 336.01 218.147 336.01 487.245C336.01 756.344 432.712 974.491 552 974.491Z" fill="#098480"/>
<path d="M105.234 859V893.207C105.234 898.89 103.477 903.385 99.9609 906.689C96.4689 909.995 91.6879 911.648 85.6169 911.648C79.6407 911.648 74.8946 910.043 71.3789 906.832C67.8633 903.622 66.0703 899.211 66 893.599V859H76.5469V893.279C76.5469 896.679 77.3438 899.163 78.9375 900.733C80.5547 902.279 82.7809 903.051 85.6169 903.051C91.5469 903.051 94.5589 899.889 94.6519 893.564V859H105.234ZM122.218 910.934H111.671V859H122.218V910.934ZM131.678 915.394H124.119L142.963 859H150.521L131.678 915.394ZM191.938 859V893.207C191.938 898.89 190.18 903.385 186.665 906.689C183.173 909.995 178.391 911.648 172.321 911.648C166.345 911.648 161.598 910.043 158.083 906.832C154.567 903.622 152.774 899.211 152.704 893.599V859H163.251V893.279C163.251 896.679 164.048 899.163 165.641 900.733C167.259 902.279 169.485 903.051 172.321 903.051C178.251 903.051 181.262 899.889 181.356 893.564V859H191.938ZM216.023 876.906L225.621 859H237.75L222.843 884.753L238.136 910.934H225.867L216.023 892.743L206.179 910.934H193.91L209.203 884.753L194.297 859H206.425L216.023 876.906Z" fill="white"/>
</g>
<defs>
<clipPath id="clip0_1110_18">
<rect width="552" height="974" fill="white"/>
</clipPath>
</defs>
</svg>
