<svg width="552" height="960" viewBox="0 0 552 960" fill="none" xmlns="http://www.w3.org/2000/svg">
<g clip-path="url(#clip0_705_12)">
<rect width="552" height="960" fill="#00BE6E"/>
<path d="M404.504 628.905V748.234H334.722V409.555H466.844C492.276 409.555 514.606 414.207 533.835 423.511C553.219 432.816 568.106 446.075 578.496 463.288C588.886 480.346 594.081 499.807 594.081 521.673C594.081 554.858 582.683 581.065 559.887 600.295C537.247 619.368 505.845 628.905 465.681 628.905H404.504ZM404.504 572.381H466.844C485.297 572.381 499.331 568.039 508.946 559.355C518.716 550.671 523.6 538.265 523.6 522.138C523.6 505.545 518.716 492.131 508.946 481.896C499.176 471.662 485.685 466.389 468.472 466.079H404.504V572.381Z" fill="#00BE6E"/>
<path d="M404.504 628.905V626.158H401.757V628.905H404.504ZM404.504 748.234V750.982H407.252V748.234H404.504ZM334.722 748.234H331.974V750.982H334.722V748.234ZM334.722 409.555V406.807H331.974V409.555H334.722ZM533.835 423.511L532.638 425.985L532.646 425.989L533.835 423.511ZM578.496 463.288L576.144 464.708L576.149 464.717L578.496 463.288ZM559.887 600.295L561.658 602.396L561.659 602.395L559.887 600.295ZM404.504 572.381H401.757V575.129H404.504V572.381ZM508.946 559.355L507.12 557.302L507.112 557.309L507.104 557.316L508.946 559.355ZM468.472 466.079L468.521 463.332L468.497 463.331H468.472V466.079ZM404.504 466.079V463.331H401.757V466.079H404.504ZM401.757 628.905V748.234H407.252V628.905H401.757ZM404.504 745.486H334.722V750.982H404.504V745.486ZM337.469 748.234V409.555H331.974V748.234H337.469ZM334.722 412.303H466.844V406.807H334.722V412.303ZM466.844 412.303C491.939 412.303 513.847 416.892 532.638 425.985L535.032 421.038C515.365 411.522 492.612 406.807 466.844 406.807V412.303ZM532.646 425.989C551.583 435.078 566.05 447.985 576.144 464.708L580.849 461.868C570.163 444.164 554.856 430.553 535.024 421.034L532.646 425.989ZM576.149 464.717C586.252 481.304 591.333 500.262 591.333 521.673H596.829C596.829 499.352 591.52 479.387 580.843 461.858L576.149 464.717ZM591.333 521.673C591.333 554.151 580.218 579.55 558.116 598.194L561.659 602.395C585.148 582.581 596.829 555.565 596.829 521.673H591.333ZM558.117 598.193C536.124 616.721 505.428 626.158 465.681 626.158V631.653C506.261 631.653 538.37 622.016 561.658 602.396L558.117 598.193ZM465.681 626.158H404.504V631.653H465.681V626.158ZM404.504 575.129H466.844V569.634H404.504V575.129ZM466.844 575.129C485.691 575.129 500.49 570.696 510.788 561.394L507.104 557.316C498.173 565.383 484.904 569.634 466.844 569.634V575.129ZM510.772 561.409C521.261 552.085 526.348 538.852 526.348 522.138H520.853C520.853 537.679 516.17 549.258 507.12 557.302L510.772 561.409ZM526.348 522.138C526.348 504.969 521.274 490.832 510.934 479.999L506.958 483.794C516.157 493.43 520.853 506.121 520.853 522.138H526.348ZM510.934 479.999C500.551 469.122 486.298 463.652 468.521 463.332L468.422 468.826C485.072 469.126 497.802 474.201 506.958 483.794L510.934 479.999ZM468.472 463.331H404.504V468.827H468.472V463.331ZM401.757 466.079V572.381H407.252V466.079H401.757Z" fill="#36353A"/>
<path d="M592.347 260.128H487.626V544.941H417.186V260.128H313.874V203.072H592.347V260.128ZM778.403 357.101L849.547 203.072H926.562L814.327 420.966V544.941H742.713V420.966L630.479 203.072H707.728L778.403 357.101Z" fill="#36353A"/>
<path d="M44.5703 830.219V779.031H60.3203C64.8203 779.031 68.8398 780.051 72.3789 782.09C75.9414 784.105 78.7188 786.988 80.7109 790.738C82.7031 794.465 83.6992 798.707 83.6992 803.465V805.82C83.6992 810.578 82.7148 814.808 80.7461 818.511C78.8008 822.215 76.0469 825.086 72.4844 827.125C68.9219 829.164 64.9023 830.195 60.4258 830.219H44.5703ZM55.1172 787.574V821.746H60.2148C64.3398 821.746 67.4922 820.398 69.6719 817.703C71.8516 815.008 72.9648 811.152 73.0117 806.136V803.429C73.0117 798.226 71.9336 794.289 69.7773 791.617C67.6211 788.922 64.4688 787.574 60.3203 787.574H55.1172ZM98.5731 830.219H88.3778V792.179H98.5731V830.219ZM87.7802 782.336C87.7802 780.812 88.2841 779.558 89.2919 778.574C90.3231 777.59 91.7177 777.097 93.4755 777.097C95.2098 777.097 96.5927 777.59 97.6239 778.574C98.6552 779.558 99.1708 780.812 99.1708 782.336C99.1708 783.883 98.6434 785.148 97.5887 786.133C96.5575 787.117 95.1864 787.609 93.4755 787.609C91.7645 787.609 90.3817 787.117 89.327 786.133C88.2958 785.148 87.7802 783.883 87.7802 782.336ZM102.619 810.918C102.619 805.082 104.002 800.383 106.767 796.82C109.556 793.258 113.306 791.476 118.017 791.476C122.189 791.476 125.435 792.906 127.756 795.765L128.177 792.179H137.388V828.953C137.388 832.281 136.627 835.176 135.103 837.636C133.603 840.097 131.482 841.972 128.74 843.261C125.998 844.551 122.787 845.195 119.107 845.195C116.318 845.195 113.599 844.633 110.951 843.508C108.302 842.406 106.299 840.976 104.939 839.219L109.439 833.031C111.97 835.867 115.041 837.285 118.65 837.285C121.345 837.285 123.443 836.558 124.943 835.105C126.443 833.676 127.193 831.636 127.193 828.988V826.949C124.849 829.597 121.767 830.922 117.947 830.922C113.377 830.922 109.674 829.14 106.838 825.578C104.025 821.992 102.619 817.246 102.619 811.34V810.918ZM112.779 811.656C112.779 815.101 113.47 817.808 114.853 819.777C116.236 821.722 118.135 822.695 120.549 822.695C123.642 822.695 125.857 821.535 127.193 819.215V803.219C125.834 800.898 123.642 799.738 120.619 799.738C118.181 799.738 116.26 800.734 114.853 802.726C113.47 804.719 112.779 807.695 112.779 811.656ZM153.071 830.219H142.876V792.179H153.071V830.219ZM142.278 782.336C142.278 780.812 142.782 779.558 143.79 778.574C144.821 777.59 146.215 777.097 147.973 777.097C149.708 777.097 151.09 777.59 152.122 778.574C153.153 779.558 153.669 780.812 153.669 782.336C153.669 783.883 153.141 785.148 152.087 786.133C151.055 787.117 149.684 787.609 147.973 787.609C146.262 787.609 144.88 787.117 143.825 786.133C142.794 785.148 142.278 783.883 142.278 782.336ZM170.757 782.828V792.179H177.261V799.633H170.757V818.617C170.757 820.023 171.027 821.031 171.566 821.64C172.105 822.25 173.136 822.554 174.66 822.554C175.785 822.554 176.781 822.472 177.648 822.308V830.008C175.656 830.617 173.605 830.922 171.496 830.922C164.371 830.922 160.738 827.324 160.597 820.129V799.633H155.042V792.179H160.597V782.828H170.757ZM202.084 830.219C201.616 829.304 201.276 828.168 201.065 826.808C198.604 829.551 195.405 830.922 191.467 830.922C187.741 830.922 184.647 829.844 182.186 827.687C179.748 825.531 178.53 822.812 178.53 819.531C178.53 815.5 180.018 812.406 182.995 810.25C185.995 808.094 190.319 807.004 195.967 806.98H200.643V804.801C200.643 803.043 200.186 801.636 199.272 800.582C198.381 799.527 196.963 799 195.018 799C193.307 799 191.959 799.41 190.975 800.23C190.014 801.051 189.534 802.176 189.534 803.605H179.373C179.373 801.402 180.053 799.363 181.413 797.488C182.772 795.613 184.694 794.148 187.178 793.094C189.663 792.015 192.452 791.476 195.545 791.476C200.233 791.476 203.948 792.66 206.69 795.027C209.455 797.371 210.838 800.676 210.838 804.941V821.429C210.862 825.039 211.366 827.769 212.35 829.621V830.219H202.084ZM193.682 823.152C195.182 823.152 196.565 822.824 197.83 822.168C199.096 821.488 200.034 820.586 200.643 819.461V812.922H196.846C191.76 812.922 189.053 814.679 188.725 818.195L188.69 818.793C188.69 820.058 189.135 821.101 190.026 821.922C190.916 822.742 192.135 823.152 193.682 823.152ZM226.486 830.219H216.29V776.219H226.486V830.219ZM44.5703 914.219V863.031H60.3203C64.8203 863.031 68.8398 864.051 72.3789 866.09C75.9414 868.105 78.7188 870.988 80.7109 874.738C82.7031 878.465 83.6992 882.707 83.6992 887.465V889.82C83.6992 894.578 82.7148 898.808 80.7461 902.511C78.8008 906.215 76.0469 909.086 72.4844 911.125C68.9219 913.164 64.9023 914.195 60.4258 914.219H44.5703ZM55.1172 871.574V905.746H60.2148C64.3398 905.746 67.4922 904.398 69.6719 901.703C71.8516 899.008 72.9648 895.152 73.0117 890.136V887.429C73.0117 882.226 71.9336 878.289 69.7773 875.617C67.6211 872.922 64.4688 871.574 60.3203 871.574H55.1172ZM105.358 914.922C99.7802 914.922 95.2333 913.211 91.7177 909.789C88.2255 906.367 86.4794 901.808 86.4794 896.113V895.129C86.4794 891.308 87.2177 887.898 88.6942 884.898C90.1708 881.875 92.2567 879.554 94.952 877.937C97.6708 876.297 100.765 875.476 104.233 875.476C109.436 875.476 113.526 877.117 116.503 880.398C119.503 883.679 121.003 888.332 121.003 894.355V898.504H96.7802C97.1083 900.988 98.0927 902.98 99.7333 904.48C101.397 905.98 103.495 906.73 106.026 906.73C109.94 906.73 112.999 905.312 115.202 902.476L120.194 908.066C118.671 910.222 116.608 911.91 114.007 913.129C111.405 914.324 108.522 914.922 105.358 914.922ZM104.198 883.703C102.182 883.703 100.542 884.383 99.2762 885.742C98.0341 887.101 97.2372 889.047 96.8856 891.578H111.018V890.769C110.972 888.519 110.362 886.785 109.19 885.566C108.018 884.324 106.354 883.703 104.198 883.703ZM144.525 903.707C144.525 902.465 143.904 901.492 142.662 900.789C141.443 900.062 139.474 899.418 136.756 898.855C127.709 896.957 123.185 893.113 123.185 887.324C123.185 883.949 124.58 881.136 127.369 878.886C130.181 876.613 133.849 875.476 138.373 875.476C143.201 875.476 147.056 876.613 149.939 878.886C152.845 881.16 154.299 884.113 154.299 887.746H144.138C144.138 886.293 143.67 885.097 142.732 884.16C141.795 883.199 140.33 882.719 138.338 882.719C136.627 882.719 135.302 883.105 134.365 883.879C133.427 884.652 132.959 885.636 132.959 886.832C132.959 887.957 133.486 888.871 134.541 889.574C135.619 890.254 137.424 890.851 139.955 891.367C142.486 891.859 144.619 892.422 146.353 893.054C151.72 895.023 154.404 898.433 154.404 903.285C154.404 906.754 152.916 909.566 149.939 911.722C146.963 913.855 143.119 914.922 138.408 914.922C135.22 914.922 132.385 914.359 129.9 913.234C127.439 912.086 125.506 910.527 124.099 908.558C122.693 906.566 121.99 904.422 121.99 902.125H131.623C131.717 903.929 132.385 905.312 133.627 906.273C134.869 907.234 136.533 907.715 138.619 907.715C140.564 907.715 142.029 907.351 143.013 906.625C144.021 905.875 144.525 904.902 144.525 903.707ZM168.821 914.219H158.626V876.179H168.821V914.219ZM158.028 866.336C158.028 864.812 158.532 863.558 159.54 862.574C160.571 861.59 161.965 861.097 163.723 861.097C165.458 861.097 166.84 861.59 167.872 862.574C168.903 863.558 169.419 864.812 169.419 866.336C169.419 867.883 168.891 869.148 167.837 870.133C166.805 871.117 165.434 871.609 163.723 871.609C162.012 871.609 160.63 871.117 159.575 870.133C158.544 869.148 158.028 867.883 158.028 866.336ZM172.867 894.918C172.867 889.082 174.25 884.383 177.015 880.82C179.804 877.258 183.554 875.476 188.265 875.476C192.437 875.476 195.683 876.906 198.003 879.765L198.425 876.179H207.636V912.953C207.636 916.281 206.875 919.176 205.351 921.636C203.851 924.097 201.73 925.972 198.988 927.261C196.246 928.551 193.035 929.195 189.355 929.195C186.566 929.195 183.847 928.633 181.199 927.508C178.55 926.406 176.546 924.976 175.187 923.219L179.687 917.031C182.218 919.867 185.289 921.285 188.898 921.285C191.593 921.285 193.691 920.558 195.191 919.105C196.691 917.676 197.441 915.636 197.441 912.988V910.949C195.097 913.597 192.015 914.922 188.195 914.922C183.625 914.922 179.921 913.14 177.085 909.578C174.273 905.992 172.867 901.246 172.867 895.34V894.918ZM183.027 895.656C183.027 899.101 183.718 901.808 185.101 903.777C186.484 905.722 188.382 906.695 190.796 906.695C193.89 906.695 196.105 905.535 197.441 903.215V887.219C196.082 884.898 193.89 883.738 190.867 883.738C188.429 883.738 186.507 884.734 185.101 886.726C183.718 888.719 183.027 891.695 183.027 895.656ZM221.948 876.179L222.264 880.574C224.983 877.176 228.627 875.476 233.198 875.476C237.229 875.476 240.229 876.66 242.198 879.027C244.166 881.394 245.174 884.933 245.221 889.644V914.219H235.061V889.89C235.061 887.734 234.592 886.176 233.655 885.215C232.717 884.23 231.159 883.738 228.979 883.738C226.12 883.738 223.975 884.957 222.545 887.394V914.219H212.385V876.179H221.948ZM270.677 903.707C270.677 902.465 270.056 901.492 268.814 900.789C267.595 900.062 265.626 899.418 262.908 898.855C253.861 896.957 249.337 893.113 249.337 887.324C249.337 883.949 250.732 881.136 253.521 878.886C256.333 876.613 260.001 875.476 264.525 875.476C269.353 875.476 273.208 876.613 276.091 878.886C278.997 881.16 280.45 884.113 280.45 887.746H270.29C270.29 886.293 269.822 885.097 268.884 884.16C267.947 883.199 266.482 882.719 264.49 882.719C262.779 882.719 261.454 883.105 260.517 883.879C259.579 884.652 259.111 885.636 259.111 886.832C259.111 887.957 259.638 888.871 260.693 889.574C261.771 890.254 263.575 890.851 266.107 891.367C268.638 891.859 270.771 892.422 272.505 893.054C277.872 895.023 280.556 898.433 280.556 903.285C280.556 906.754 279.068 909.566 276.091 911.722C273.115 913.855 269.271 914.922 264.56 914.922C261.372 914.922 258.536 914.359 256.052 913.234C253.591 912.086 251.658 910.527 250.251 908.558C248.845 906.566 248.142 904.422 248.142 902.125H257.775C257.868 903.929 258.536 905.312 259.779 906.273C261.021 907.234 262.685 907.715 264.771 907.715C266.716 907.715 268.181 907.351 269.165 906.625C270.173 905.875 270.677 904.902 270.677 903.707Z" fill="white"/>
</g>
<defs>
<clipPath id="clip0_705_12">
<rect width="552" height="960" fill="white"/>
</clipPath>
</defs>
</svg>
