<svg width="552" height="960" viewBox="0 0 552 960" fill="none" xmlns="http://www.w3.org/2000/svg">
<g clip-path="url(#clip0_705_12)">
<rect width="552" height="960" fill="#00BE6E"/>
<path d="M529.022 679.965V799.293H459.239V460.614H591.361C616.793 460.614 639.124 465.267 658.353 474.571C677.737 483.875 692.624 497.134 703.014 514.347C713.404 531.405 718.599 550.867 718.599 572.732C718.599 605.918 707.201 632.125 684.405 651.354C661.764 670.428 630.362 679.965 590.198 679.965H529.022ZM529.022 623.441H591.361C609.815 623.441 623.849 619.099 633.464 610.415C643.233 601.731 648.118 589.325 648.118 573.197C648.118 556.604 643.233 543.191 633.464 532.956C623.694 522.721 610.203 517.449 592.99 517.138H529.022V623.441Z" fill="#00BE6E"/>
<path d="M529.022 679.965V677.217H526.274V679.965H529.022ZM529.022 799.293V802.041H531.77V799.293H529.022ZM459.239 799.293H456.491V802.041H459.239V799.293ZM459.239 460.614V457.867H456.491V460.614H459.239ZM658.353 474.571L657.156 477.044L657.164 477.048L658.353 474.571ZM703.014 514.347L700.661 515.767L700.667 515.777L703.014 514.347ZM684.405 651.354L686.175 653.455L686.177 653.454L684.405 651.354ZM529.022 623.441H526.274V626.189H529.022V623.441ZM633.464 610.415L631.638 608.361L631.63 608.368L631.622 608.376L633.464 610.415ZM592.99 517.138L593.039 514.391L593.014 514.391H592.99V517.138ZM529.022 517.138V514.391H526.274V517.138H529.022ZM526.274 679.965V799.293H531.77V679.965H526.274ZM529.022 796.546H459.239V802.041H529.022V796.546ZM461.987 799.293V460.614H456.491V799.293H461.987ZM459.239 463.362H591.361V457.867H459.239V463.362ZM591.361 463.362C616.457 463.362 638.365 467.952 657.156 477.044L659.55 472.097C639.883 462.581 617.13 457.867 591.361 457.867V463.362ZM657.164 477.048C676.1 486.138 690.567 499.044 700.661 515.767L705.366 512.927C694.68 495.224 679.373 481.613 659.542 472.094L657.164 477.048ZM700.667 515.777C710.77 532.364 715.851 551.322 715.851 572.732H721.346C721.346 550.412 716.037 530.447 705.36 512.918L700.667 515.777ZM715.851 572.732C715.851 605.211 704.735 630.61 682.633 649.254L686.177 653.454C709.666 633.64 721.346 606.625 721.346 572.732H715.851ZM682.635 649.253C660.642 667.781 629.946 677.217 590.198 677.217V682.713C630.779 682.713 662.887 673.075 686.175 653.455L682.635 649.253ZM590.198 677.217H529.022V682.713H590.198V677.217ZM529.022 626.189H591.361V620.693H529.022V626.189ZM591.361 626.189C610.209 626.189 625.007 621.755 635.305 612.454L631.622 608.376C622.691 616.442 609.421 620.693 591.361 620.693V626.189ZM635.289 612.468C645.779 603.144 650.866 589.911 650.866 573.197H645.37C645.37 588.738 640.687 600.317 631.638 608.361L635.289 612.468ZM650.866 573.197C650.866 556.028 645.792 541.892 635.451 531.059L631.476 534.853C640.674 544.49 645.37 557.18 645.37 573.197H650.866ZM635.451 531.059C625.069 520.182 610.816 514.711 593.039 514.391L592.94 519.886C609.589 520.186 622.319 525.26 631.476 534.853L635.451 531.059ZM592.99 514.391H529.022V519.886H592.99V514.391ZM526.274 517.138V623.441H531.77V517.138H526.274Z" fill="#36353A"/>
<path d="M716.865 311.188H612.144V596H541.704V311.188H438.392V254.131H716.865V311.188ZM902.92 408.16L974.065 254.131H1051.08L938.845 472.026V596H867.231V472.026L754.996 254.131H832.246L902.92 408.16Z" fill="#36353A"/>
<path d="M79.4 741.456C84.728 741.456 89.384 742.512 93.368 744.624C97.352 746.736 100.424 749.712 102.584 753.552C104.792 757.344 105.896 761.736 105.896 766.728C105.896 771.672 104.792 776.064 102.584 779.904C100.424 783.744 97.328 786.72 93.296 788.832C89.312 790.944 84.68 792 79.4 792H60.464V741.456H79.4ZM78.608 781.344C83.264 781.344 86.888 780.072 89.48 777.528C92.072 774.984 93.368 771.384 93.368 766.728C93.368 762.072 92.072 758.448 89.48 755.856C86.888 753.264 83.264 751.968 78.608 751.968H72.776V781.344H78.608ZM116.088 747.648C113.928 747.648 112.152 747.024 110.76 745.776C109.416 744.48 108.744 742.896 108.744 741.024C108.744 739.104 109.416 737.52 110.76 736.272C112.152 734.976 113.928 734.328 116.088 734.328C118.2 734.328 119.928 734.976 121.272 736.272C122.664 737.52 123.36 739.104 123.36 741.024C123.36 742.896 122.664 744.48 121.272 745.776C119.928 747.024 118.2 747.648 116.088 747.648ZM122.208 751.824V792H109.896V751.824H122.208ZM143.515 751.248C146.347 751.248 148.819 751.824 150.931 752.976C153.091 754.128 154.747 755.64 155.899 757.512V751.824H168.211V791.928C168.211 795.624 167.467 798.96 165.979 801.936C164.539 804.96 162.307 807.36 159.283 809.136C156.307 810.912 152.587 811.8 148.123 811.8C142.171 811.8 137.347 810.384 133.651 807.552C129.955 804.768 127.843 800.976 127.315 796.176H139.483C139.867 797.712 140.779 798.912 142.219 799.776C143.659 800.688 145.435 801.144 147.547 801.144C150.091 801.144 152.107 800.4 153.595 798.912C155.131 797.472 155.899 795.144 155.899 791.928V786.24C154.699 788.112 153.043 789.648 150.931 790.848C148.819 792 146.347 792.576 143.515 792.576C140.203 792.576 137.203 791.736 134.515 790.056C131.827 788.328 129.691 785.904 128.107 782.784C126.571 779.616 125.803 775.968 125.803 771.84C125.803 767.712 126.571 764.088 128.107 760.968C129.691 757.848 131.827 755.448 134.515 753.768C137.203 752.088 140.203 751.248 143.515 751.248ZM155.899 771.912C155.899 768.84 155.035 766.416 153.307 764.64C151.627 762.864 149.563 761.976 147.115 761.976C144.667 761.976 142.579 762.864 140.851 764.64C139.171 766.368 138.331 768.768 138.331 771.84C138.331 774.912 139.171 777.36 140.851 779.184C142.579 780.96 144.667 781.848 147.115 781.848C149.563 781.848 151.627 780.96 153.307 779.184C155.035 777.408 155.899 774.984 155.899 771.912ZM180.43 747.648C178.27 747.648 176.494 747.024 175.102 745.776C173.758 744.48 173.086 742.896 173.086 741.024C173.086 739.104 173.758 737.52 175.102 736.272C176.494 734.976 178.27 734.328 180.43 734.328C182.542 734.328 184.27 734.976 185.614 736.272C187.006 737.52 187.702 739.104 187.702 741.024C187.702 742.896 187.006 744.48 185.614 745.776C184.27 747.024 182.542 747.648 180.43 747.648ZM186.55 751.824V792H174.238V751.824H186.55ZM214.984 781.56V792H208.72C204.256 792 200.776 790.92 198.28 788.76C195.784 786.552 194.536 782.976 194.536 778.032V762.048H189.64V751.824H194.536V742.032H206.848V751.824H214.912V762.048H206.848V778.176C206.848 779.376 207.136 780.24 207.712 780.768C208.288 781.296 209.248 781.56 210.592 781.56H214.984ZM216.514 771.84C216.514 767.712 217.282 764.088 218.818 760.968C220.402 757.848 222.538 755.448 225.226 753.768C227.914 752.088 230.914 751.248 234.226 751.248C237.058 751.248 239.53 751.824 241.642 752.976C243.802 754.128 245.458 755.64 246.61 757.512V751.824H258.922V792H246.61V786.312C245.41 788.184 243.73 789.696 241.57 790.848C239.458 792 236.986 792.576 234.154 792.576C230.89 792.576 227.914 791.736 225.226 790.056C222.538 788.328 220.402 785.904 218.818 782.784C217.282 779.616 216.514 775.968 216.514 771.84ZM246.61 771.912C246.61 768.84 245.746 766.416 244.018 764.64C242.338 762.864 240.274 761.976 237.826 761.976C235.378 761.976 233.29 762.864 231.562 764.64C229.882 766.368 229.042 768.768 229.042 771.84C229.042 774.912 229.882 777.36 231.562 779.184C233.29 780.96 235.378 781.848 237.826 781.848C240.274 781.848 242.338 780.96 244.018 779.184C245.746 777.408 246.61 774.984 246.61 771.912ZM277.262 738.72V792H264.95V738.72H277.262ZM79.4 849.456C84.728 849.456 89.384 850.512 93.368 852.624C97.352 854.736 100.424 857.712 102.584 861.552C104.792 865.344 105.896 869.736 105.896 874.728C105.896 879.672 104.792 884.064 102.584 887.904C100.424 891.744 97.328 894.72 93.296 896.832C89.312 898.944 84.68 900 79.4 900H60.464V849.456H79.4ZM78.608 889.344C83.264 889.344 86.888 888.072 89.48 885.528C92.072 882.984 93.368 879.384 93.368 874.728C93.368 870.072 92.072 866.448 89.48 863.856C86.888 861.264 83.264 859.968 78.608 859.968H72.776V889.344H78.608ZM147.768 879.264C147.768 880.416 147.696 881.616 147.553 882.864H119.688C119.88 885.36 120.672 887.28 122.064 888.624C123.504 889.92 125.256 890.568 127.321 890.568C130.393 890.568 132.529 889.272 133.728 886.68H146.833C146.161 889.32 144.937 891.696 143.161 893.808C141.433 895.92 139.249 897.576 136.609 898.776C133.969 899.976 131.016 900.576 127.752 900.576C123.816 900.576 120.312 899.736 117.24 898.056C114.168 896.376 111.768 893.976 110.04 890.856C108.312 887.736 107.448 884.088 107.448 879.912C107.448 875.736 108.288 872.088 109.968 868.968C111.696 865.848 114.096 863.448 117.168 861.768C120.24 860.088 123.768 859.248 127.752 859.248C131.641 859.248 135.097 860.064 138.121 861.696C141.145 863.328 143.497 865.656 145.177 868.68C146.905 871.704 147.768 875.232 147.768 879.264ZM135.169 876.024C135.169 873.912 134.449 872.232 133.009 870.984C131.569 869.736 129.769 869.112 127.609 869.112C125.545 869.112 123.793 869.712 122.352 870.912C120.961 872.112 120.097 873.816 119.761 876.024H135.169ZM167.728 900.576C164.224 900.576 161.104 899.976 158.368 898.776C155.632 897.576 153.472 895.944 151.888 893.88C150.304 891.768 149.416 889.416 149.224 886.824H161.392C161.536 888.216 162.184 889.344 163.336 890.208C164.488 891.072 165.904 891.504 167.584 891.504C169.12 891.504 170.296 891.216 171.112 890.64C171.976 890.016 172.408 889.224 172.408 888.264C172.408 887.112 171.808 886.272 170.608 885.744C169.408 885.168 167.464 884.544 164.776 883.872C161.896 883.2 159.496 882.504 157.576 881.784C155.656 881.016 154 879.84 152.608 878.256C151.216 876.624 150.52 874.44 150.52 871.704C150.52 869.4 151.144 867.312 152.392 865.44C153.688 863.52 155.56 862.008 158.008 860.904C160.504 859.8 163.456 859.248 166.864 859.248C171.904 859.248 175.864 860.496 178.744 862.992C181.672 865.488 183.352 868.8 183.784 872.928H172.408C172.216 871.536 171.592 870.432 170.536 869.616C169.528 868.8 168.184 868.392 166.504 868.392C165.064 868.392 163.96 868.68 163.192 869.256C162.424 869.784 162.04 870.528 162.04 871.488C162.04 872.64 162.64 873.504 163.84 874.08C165.088 874.656 167.008 875.232 169.6 875.808C172.576 876.576 175 877.344 176.872 878.112C178.744 878.832 180.376 880.032 181.768 881.712C183.208 883.344 183.952 885.552 184 888.336C184 890.688 183.328 892.8 181.984 894.672C180.688 896.496 178.792 897.936 176.296 898.992C173.848 900.048 170.992 900.576 167.728 900.576ZM194.844 855.648C192.684 855.648 190.908 855.024 189.516 853.776C188.172 852.48 187.5 850.896 187.5 849.024C187.5 847.104 188.172 845.52 189.516 844.272C190.908 842.976 192.684 842.328 194.844 842.328C196.956 842.328 198.684 842.976 200.028 844.272C201.42 845.52 202.116 847.104 202.116 849.024C202.116 850.896 201.42 852.48 200.028 853.776C198.684 855.024 196.956 855.648 194.844 855.648ZM200.964 859.824V900H188.652V859.824H200.964ZM222.27 859.248C225.102 859.248 227.574 859.824 229.686 860.976C231.846 862.128 233.502 863.64 234.654 865.512V859.824H246.966V899.928C246.966 903.624 246.222 906.96 244.734 909.936C243.294 912.96 241.062 915.36 238.038 917.136C235.062 918.912 231.342 919.8 226.878 919.8C220.926 919.8 216.102 918.384 212.406 915.552C208.71 912.768 206.598 908.976 206.07 904.176H218.238C218.622 905.712 219.534 906.912 220.974 907.776C222.414 908.688 224.19 909.144 226.302 909.144C228.846 909.144 230.862 908.4 232.35 906.912C233.886 905.472 234.654 903.144 234.654 899.928V894.24C233.454 896.112 231.798 897.648 229.686 898.848C227.574 900 225.102 900.576 222.27 900.576C218.958 900.576 215.958 899.736 213.27 898.056C210.582 896.328 208.446 893.904 206.862 890.784C205.326 887.616 204.558 883.968 204.558 879.84C204.558 875.712 205.326 872.088 206.862 868.968C208.446 865.848 210.582 863.448 213.27 861.768C215.958 860.088 218.958 859.248 222.27 859.248ZM234.654 879.912C234.654 876.84 233.79 874.416 232.062 872.64C230.382 870.864 228.318 869.976 225.87 869.976C223.422 869.976 221.334 870.864 219.606 872.64C217.926 874.368 217.086 876.768 217.086 879.84C217.086 882.912 217.926 885.36 219.606 887.184C221.334 888.96 223.422 889.848 225.87 889.848C228.318 889.848 230.382 888.96 232.062 887.184C233.79 885.408 234.654 882.984 234.654 879.912ZM277.474 859.392C282.178 859.392 285.922 860.928 288.706 864C291.538 867.024 292.954 871.2 292.954 876.528V900H280.714V878.184C280.714 875.496 280.018 873.408 278.626 871.92C277.234 870.432 275.362 869.688 273.01 869.688C270.658 869.688 268.786 870.432 267.394 871.92C266.002 873.408 265.306 875.496 265.306 878.184V900H252.994V859.824H265.306V865.152C266.554 863.376 268.234 861.984 270.346 860.976C272.458 859.92 274.834 859.392 277.474 859.392ZM314.973 900.576C311.469 900.576 308.349 899.976 305.613 898.776C302.877 897.576 300.717 895.944 299.133 893.88C297.549 891.768 296.661 889.416 296.469 886.824H308.637C308.781 888.216 309.429 889.344 310.581 890.208C311.733 891.072 313.149 891.504 314.829 891.504C316.365 891.504 317.541 891.216 318.357 890.64C319.221 890.016 319.653 889.224 319.653 888.264C319.653 887.112 319.053 886.272 317.853 885.744C316.653 885.168 314.709 884.544 312.021 883.872C309.141 883.2 306.741 882.504 304.821 881.784C302.901 881.016 301.245 879.84 299.853 878.256C298.461 876.624 297.765 874.44 297.765 871.704C297.765 869.4 298.389 867.312 299.637 865.44C300.933 863.52 302.805 862.008 305.253 860.904C307.749 859.8 310.701 859.248 314.109 859.248C319.149 859.248 323.109 860.496 325.989 862.992C328.917 865.488 330.597 868.8 331.029 872.928H319.653C319.461 871.536 318.837 870.432 317.781 869.616C316.773 868.8 315.429 868.392 313.749 868.392C312.309 868.392 311.205 868.68 310.437 869.256C309.669 869.784 309.285 870.528 309.285 871.488C309.285 872.64 309.885 873.504 311.085 874.08C312.333 874.656 314.253 875.232 316.845 875.808C319.821 876.576 322.245 877.344 324.117 878.112C325.989 878.832 327.621 880.032 329.013 881.712C330.453 883.344 331.197 885.552 331.245 888.336C331.245 890.688 330.573 892.8 329.229 894.672C327.933 896.496 326.037 897.936 323.541 898.992C321.093 900.048 318.237 900.576 314.973 900.576Z" fill="white"/>
</g>
<defs>
<clipPath id="clip0_705_12">
<rect width="552" height="960" fill="white"/>
</clipPath>
</defs>
</svg>
