<svg width="552" height="960" viewBox="0 0 552 960" fill="none" xmlns="http://www.w3.org/2000/svg">
<g clip-path="url(#clip0_705_12)">
<rect width="552" height="960" fill="#00BE6E"/>
<path d="M404.504 628.905V748.234H334.722V409.555H466.844C492.276 409.555 514.606 414.207 533.835 423.511C553.219 432.816 568.106 446.074 578.496 463.288C588.886 480.346 594.081 499.807 594.081 521.672C594.081 554.858 582.683 581.065 559.887 600.294C537.247 619.368 505.845 628.905 465.681 628.905H404.504ZM404.504 572.381H466.844C485.297 572.381 499.331 568.039 508.946 559.355C518.716 550.671 523.6 538.265 523.6 522.138C523.6 505.545 518.716 492.131 508.946 481.896C499.176 471.661 485.685 466.389 468.472 466.079H404.504V572.381Z" fill="#00BE6E"/>
<path d="M404.504 628.905V626.158H401.757V628.905H404.504ZM404.504 748.234V750.982H407.252V748.234H404.504ZM334.722 748.234H331.974V750.982H334.722V748.234ZM334.722 409.555V406.807H331.974V409.555H334.722ZM533.835 423.511L532.638 425.985L532.646 425.989L533.835 423.511ZM578.496 463.288L576.144 464.708L576.149 464.717L578.496 463.288ZM559.887 600.294L561.658 602.396L561.659 602.395L559.887 600.294ZM404.504 572.381H401.757V575.129H404.504V572.381ZM508.946 559.355L507.12 557.301L507.112 557.309L507.104 557.316L508.946 559.355ZM468.472 466.079L468.521 463.331L468.497 463.331H468.472V466.079ZM404.504 466.079V463.331H401.757V466.079H404.504ZM401.757 628.905V748.234H407.252V628.905H401.757ZM404.504 745.486H334.722V750.982H404.504V745.486ZM337.469 748.234V409.555H331.974V748.234H337.469ZM334.722 412.303H466.844V406.807H334.722V412.303ZM466.844 412.303C491.939 412.303 513.847 416.892 532.638 425.985L535.032 421.038C515.365 411.522 492.612 406.807 466.844 406.807V412.303ZM532.646 425.989C551.583 435.078 566.05 447.985 576.144 464.708L580.849 461.868C570.163 444.164 554.856 430.553 535.024 421.034L532.646 425.989ZM576.149 464.717C586.252 481.304 591.333 500.262 591.333 521.672H596.829C596.829 499.352 591.52 479.387 580.843 461.858L576.149 464.717ZM591.333 521.672C591.333 554.151 580.218 579.55 558.116 598.194L561.659 602.395C585.148 582.581 596.829 555.565 596.829 521.672H591.333ZM558.117 598.193C536.124 616.721 505.428 626.158 465.681 626.158V631.653C506.261 631.653 538.37 622.015 561.658 602.396L558.117 598.193ZM465.681 626.158H404.504V631.653H465.681V626.158ZM404.504 575.129H466.844V569.633H404.504V575.129ZM466.844 575.129C485.691 575.129 500.49 570.696 510.788 561.394L507.104 557.316C498.173 565.383 484.904 569.633 466.844 569.633V575.129ZM510.772 561.409C521.261 552.085 526.348 538.852 526.348 522.138H520.853C520.853 537.679 516.17 549.258 507.12 557.301L510.772 561.409ZM526.348 522.138C526.348 504.969 521.274 490.832 510.934 479.999L506.958 483.794C516.157 493.43 520.853 506.121 520.853 522.138H526.348ZM510.934 479.999C500.551 469.122 486.298 463.652 468.521 463.331L468.422 468.826C485.072 469.126 497.802 474.201 506.958 483.794L510.934 479.999ZM468.472 463.331H404.504V468.827H468.472V463.331ZM401.757 466.079V572.381H407.252V466.079H401.757Z" fill="#36353A"/>
<path d="M592.347 260.128H487.626V544.941H417.186V260.128H313.874V203.072H592.347V260.128ZM778.403 357.101L849.547 203.072H926.562L814.327 420.966V544.941H742.713V420.966L630.479 203.072H707.728L778.403 357.101Z" fill="#36353A"/>
<path d="M104.285 815H93.1406L93.2109 806.773H104.285C107.051 806.773 109.383 806.152 111.281 804.91C113.18 803.645 114.609 801.805 115.57 799.391C116.555 796.977 117.047 794.059 117.047 790.637V788.141C117.047 785.516 116.766 783.207 116.203 781.215C115.664 779.223 114.855 777.547 113.777 776.188C112.699 774.828 111.375 773.809 109.805 773.129C108.234 772.426 106.43 772.074 104.391 772.074H92.9297V763.812H104.391C107.812 763.812 110.941 764.398 113.777 765.57C116.637 766.719 119.109 768.371 121.195 770.527C123.281 772.684 124.887 775.262 126.012 778.262C127.16 781.238 127.734 784.555 127.734 788.211V790.637C127.734 794.27 127.16 797.586 126.012 800.586C124.887 803.586 123.281 806.164 121.195 808.32C119.133 810.453 116.66 812.105 113.777 813.277C110.918 814.426 107.754 815 104.285 815ZM99.1172 763.812V815H88.5703V763.812H99.1172ZM142.573 776.961V815H132.413V776.961H142.573ZM131.78 767.047C131.78 765.57 132.296 764.352 133.327 763.391C134.358 762.43 135.741 761.949 137.475 761.949C139.186 761.949 140.557 762.43 141.589 763.391C142.643 764.352 143.171 765.57 143.171 767.047C143.171 768.523 142.643 769.742 141.589 770.703C140.557 771.664 139.186 772.145 137.475 772.145C135.741 772.145 134.358 771.664 133.327 770.703C132.296 769.742 131.78 768.523 131.78 767.047ZM172.142 776.961H181.318V813.734C181.318 817.203 180.545 820.145 178.998 822.559C177.474 824.996 175.342 826.836 172.599 828.078C169.857 829.344 166.67 829.977 163.037 829.977C161.443 829.977 159.756 829.766 157.974 829.344C156.217 828.922 154.529 828.266 152.912 827.375C151.318 826.484 149.982 825.359 148.904 824L153.369 818.023C154.541 819.383 155.9 820.438 157.447 821.188C158.994 821.961 160.705 822.348 162.58 822.348C164.408 822.348 165.955 822.008 167.22 821.328C168.486 820.672 169.459 819.699 170.138 818.41C170.818 817.145 171.158 815.609 171.158 813.805V785.75L172.142 776.961ZM146.549 796.438V795.699C146.549 792.793 146.9 790.156 147.603 787.789C148.33 785.398 149.349 783.348 150.662 781.637C151.998 779.926 153.615 778.602 155.513 777.664C157.412 776.727 159.556 776.258 161.947 776.258C164.478 776.258 166.599 776.727 168.31 777.664C170.021 778.602 171.427 779.938 172.529 781.672C173.631 783.383 174.486 785.41 175.095 787.754C175.728 790.074 176.22 792.617 176.572 795.383V797C176.22 799.648 175.693 802.109 174.99 804.383C174.287 806.656 173.361 808.648 172.213 810.359C171.064 812.047 169.635 813.359 167.924 814.297C166.236 815.234 164.22 815.703 161.877 815.703C159.533 815.703 157.412 815.223 155.513 814.262C153.638 813.301 152.033 811.953 150.697 810.219C149.361 808.484 148.33 806.445 147.603 804.102C146.9 801.758 146.549 799.203 146.549 796.438ZM156.674 795.699V796.438C156.674 798.008 156.826 799.473 157.131 800.832C157.435 802.191 157.904 803.398 158.537 804.453C159.193 805.484 160.002 806.293 160.963 806.879C161.947 807.441 163.107 807.723 164.443 807.723C166.295 807.723 167.806 807.336 168.978 806.562C170.15 805.766 171.029 804.676 171.615 803.293C172.201 801.91 172.541 800.316 172.635 798.512V793.906C172.588 792.43 172.388 791.105 172.037 789.934C171.685 788.738 171.193 787.719 170.56 786.875C169.927 786.031 169.107 785.375 168.099 784.906C167.092 784.438 165.896 784.203 164.513 784.203C163.177 784.203 162.017 784.508 161.033 785.117C160.072 785.703 159.263 786.512 158.607 787.543C157.974 788.574 157.494 789.793 157.166 791.199C156.838 792.582 156.674 794.082 156.674 795.699ZM197.001 776.961V815H186.84V776.961H197.001ZM186.208 767.047C186.208 765.57 186.723 764.352 187.755 763.391C188.786 762.43 190.169 761.949 191.903 761.949C193.614 761.949 194.985 762.43 196.016 763.391C197.071 764.352 197.598 765.57 197.598 767.047C197.598 768.523 197.071 769.742 196.016 770.703C194.985 771.664 193.614 772.145 191.903 772.145C190.169 772.145 188.786 771.664 187.755 770.703C186.723 769.742 186.208 768.523 186.208 767.047ZM221.121 776.961V784.133H198.972V776.961H221.121ZM204.457 767.574H214.582V803.539C214.582 804.641 214.722 805.484 215.003 806.07C215.308 806.656 215.753 807.066 216.339 807.301C216.925 807.512 217.664 807.617 218.554 807.617C219.187 807.617 219.75 807.594 220.242 807.547C220.757 807.477 221.191 807.406 221.542 807.336L221.578 814.789C220.71 815.07 219.773 815.293 218.765 815.457C217.757 815.621 216.644 815.703 215.425 815.703C213.199 815.703 211.253 815.34 209.589 814.613C207.949 813.863 206.683 812.668 205.792 811.027C204.902 809.387 204.457 807.23 204.457 804.559V767.574ZM244.538 806.422V789.477C244.538 788.258 244.338 787.215 243.94 786.348C243.541 785.457 242.92 784.766 242.077 784.273C241.256 783.781 240.19 783.535 238.877 783.535C237.752 783.535 236.78 783.734 235.959 784.133C235.139 784.508 234.506 785.059 234.061 785.785C233.616 786.488 233.393 787.32 233.393 788.281H223.268C223.268 786.664 223.643 785.129 224.393 783.676C225.143 782.223 226.233 780.945 227.663 779.844C229.092 778.719 230.791 777.84 232.76 777.207C234.752 776.574 236.979 776.258 239.44 776.258C242.393 776.258 245.018 776.75 247.315 777.734C249.612 778.719 251.416 780.195 252.729 782.164C254.065 784.133 254.733 786.594 254.733 789.547V805.824C254.733 807.91 254.862 809.621 255.12 810.957C255.377 812.27 255.752 813.418 256.245 814.402V815H246.014C245.522 813.969 245.147 812.68 244.889 811.133C244.655 809.562 244.538 807.992 244.538 806.422ZM245.873 791.832L245.944 797.562H240.284C238.948 797.562 237.788 797.715 236.803 798.02C235.819 798.324 235.01 798.758 234.377 799.32C233.745 799.859 233.276 800.492 232.971 801.219C232.69 801.945 232.549 802.742 232.549 803.609C232.549 804.477 232.748 805.262 233.147 805.965C233.545 806.645 234.12 807.184 234.87 807.582C235.62 807.957 236.498 808.145 237.506 808.145C239.03 808.145 240.354 807.84 241.479 807.23C242.604 806.621 243.471 805.871 244.08 804.98C244.713 804.09 245.041 803.246 245.065 802.449L247.737 806.738C247.362 807.699 246.846 808.695 246.19 809.727C245.557 810.758 244.748 811.73 243.764 812.645C242.78 813.535 241.596 814.273 240.213 814.859C238.83 815.422 237.19 815.703 235.291 815.703C232.877 815.703 230.686 815.223 228.717 814.262C226.772 813.277 225.225 811.93 224.077 810.219C222.952 808.484 222.389 806.516 222.389 804.312C222.389 802.32 222.764 800.551 223.514 799.004C224.264 797.457 225.366 796.156 226.819 795.102C228.295 794.023 230.135 793.215 232.338 792.676C234.541 792.113 237.096 791.832 240.002 791.832H245.873ZM270.345 761V815H260.185V761H270.345ZM104.285 899H93.1406L93.2109 890.773H104.285C107.051 890.773 109.383 890.152 111.281 888.91C113.18 887.645 114.609 885.805 115.57 883.391C116.555 880.977 117.047 878.059 117.047 874.637V872.141C117.047 869.516 116.766 867.207 116.203 865.215C115.664 863.223 114.855 861.547 113.777 860.188C112.699 858.828 111.375 857.809 109.805 857.129C108.234 856.426 106.43 856.074 104.391 856.074H92.9297V847.812H104.391C107.812 847.812 110.941 848.398 113.777 849.57C116.637 850.719 119.109 852.371 121.195 854.527C123.281 856.684 124.887 859.262 126.012 862.262C127.16 865.238 127.734 868.555 127.734 872.211V874.637C127.734 878.27 127.16 881.586 126.012 884.586C124.887 887.586 123.281 890.164 121.195 892.32C119.133 894.453 116.66 896.105 113.777 897.277C110.918 898.426 107.754 899 104.285 899ZM99.1172 847.812V899H88.5703V847.812H99.1172ZM149.393 899.703C146.44 899.703 143.792 899.234 141.448 898.297C139.104 897.336 137.112 896.012 135.472 894.324C133.854 892.637 132.612 890.68 131.745 888.453C130.878 886.203 130.444 883.812 130.444 881.281V879.875C130.444 876.992 130.854 874.355 131.675 871.965C132.495 869.574 133.667 867.5 135.19 865.742C136.737 863.984 138.612 862.637 140.815 861.699C143.018 860.738 145.503 860.258 148.268 860.258C150.964 860.258 153.354 860.703 155.44 861.594C157.526 862.484 159.272 863.75 160.679 865.391C162.108 867.031 163.186 869 163.913 871.297C164.64 873.57 165.003 876.102 165.003 878.891V883.109H134.768V876.359H155.054V875.586C155.054 874.18 154.796 872.926 154.28 871.824C153.788 870.699 153.038 869.809 152.03 869.152C151.022 868.496 149.733 868.168 148.163 868.168C146.827 868.168 145.679 868.461 144.718 869.047C143.757 869.633 142.972 870.453 142.362 871.508C141.776 872.562 141.331 873.805 141.026 875.234C140.745 876.641 140.604 878.188 140.604 879.875V881.281C140.604 882.805 140.815 884.211 141.237 885.5C141.682 886.789 142.304 887.902 143.1 888.84C143.921 889.777 144.905 890.504 146.054 891.02C147.225 891.535 148.55 891.793 150.026 891.793C151.854 891.793 153.554 891.441 155.124 890.738C156.718 890.012 158.089 888.922 159.237 887.469L164.159 892.812C163.362 893.961 162.272 895.062 160.89 896.117C159.53 897.172 157.89 898.039 155.968 898.719C154.046 899.375 151.854 899.703 149.393 899.703ZM188.455 888.488C188.455 887.762 188.244 887.105 187.822 886.52C187.4 885.934 186.615 885.395 185.467 884.902C184.342 884.387 182.713 883.918 180.58 883.496C178.658 883.074 176.865 882.547 175.201 881.914C173.56 881.258 172.131 880.473 170.912 879.559C169.717 878.645 168.779 877.566 168.099 876.324C167.42 875.059 167.08 873.617 167.08 872C167.08 870.406 167.42 868.906 168.099 867.5C168.802 866.094 169.799 864.852 171.088 863.773C172.4 862.672 173.994 861.816 175.869 861.207C177.767 860.574 179.9 860.258 182.267 860.258C185.572 860.258 188.408 860.785 190.775 861.84C193.166 862.895 194.994 864.348 196.26 866.199C197.549 868.027 198.193 870.113 198.193 872.457H188.068C188.068 871.473 187.857 870.594 187.435 869.82C187.037 869.023 186.404 868.402 185.537 867.957C184.693 867.488 183.592 867.254 182.232 867.254C181.107 867.254 180.135 867.453 179.314 867.852C178.494 868.227 177.861 868.742 177.416 869.398C176.994 870.031 176.783 870.734 176.783 871.508C176.783 872.094 176.9 872.621 177.135 873.09C177.392 873.535 177.802 873.945 178.365 874.32C178.927 874.695 179.654 875.047 180.545 875.375C181.459 875.68 182.584 875.961 183.92 876.219C186.662 876.781 189.111 877.52 191.267 878.434C193.424 879.324 195.135 880.543 196.4 882.09C197.666 883.613 198.299 885.617 198.299 888.102C198.299 889.789 197.924 891.336 197.174 892.742C196.424 894.148 195.345 895.379 193.939 896.434C192.533 897.465 190.845 898.273 188.877 898.859C186.931 899.422 184.74 899.703 182.302 899.703C178.763 899.703 175.763 899.07 173.302 897.805C170.865 896.539 169.013 894.934 167.748 892.988C166.506 891.02 165.885 889.004 165.885 886.941H175.482C175.529 888.324 175.881 889.438 176.537 890.281C177.217 891.125 178.072 891.734 179.103 892.109C180.158 892.484 181.295 892.672 182.513 892.672C183.826 892.672 184.916 892.496 185.783 892.145C186.65 891.77 187.306 891.277 187.752 890.668C188.22 890.035 188.455 889.309 188.455 888.488ZM212.68 860.961V899H202.52V860.961H212.68ZM201.887 851.047C201.887 849.57 202.403 848.352 203.434 847.391C204.465 846.43 205.848 845.949 207.583 845.949C209.294 845.949 210.665 846.43 211.696 847.391C212.751 848.352 213.278 849.57 213.278 851.047C213.278 852.523 212.751 853.742 211.696 854.703C210.665 855.664 209.294 856.145 207.583 856.145C205.848 856.145 204.465 855.664 203.434 854.703C202.403 853.742 201.887 852.523 201.887 851.047ZM242.25 860.961H251.425V897.734C251.425 901.203 250.652 904.145 249.105 906.559C247.582 908.996 245.449 910.836 242.707 912.078C239.964 913.344 236.777 913.977 233.144 913.977C231.55 913.977 229.863 913.766 228.082 913.344C226.324 912.922 224.636 912.266 223.019 911.375C221.425 910.484 220.089 909.359 219.011 908L223.476 902.023C224.648 903.383 226.007 904.438 227.554 905.188C229.101 905.961 230.812 906.348 232.687 906.348C234.515 906.348 236.062 906.008 237.328 905.328C238.593 904.672 239.566 903.699 240.246 902.41C240.925 901.145 241.265 899.609 241.265 897.805V869.75L242.25 860.961ZM216.656 880.438V879.699C216.656 876.793 217.007 874.156 217.71 871.789C218.437 869.398 219.457 867.348 220.769 865.637C222.105 863.926 223.722 862.602 225.621 861.664C227.519 860.727 229.664 860.258 232.054 860.258C234.585 860.258 236.707 860.727 238.417 861.664C240.128 862.602 241.535 863.938 242.636 865.672C243.738 867.383 244.593 869.41 245.203 871.754C245.835 874.074 246.328 876.617 246.679 879.383V881C246.328 883.648 245.8 886.109 245.097 888.383C244.394 890.656 243.468 892.648 242.32 894.359C241.171 896.047 239.742 897.359 238.031 898.297C236.343 899.234 234.328 899.703 231.984 899.703C229.64 899.703 227.519 899.223 225.621 898.262C223.746 897.301 222.14 895.953 220.804 894.219C219.468 892.484 218.437 890.445 217.71 888.102C217.007 885.758 216.656 883.203 216.656 880.438ZM226.781 879.699V880.438C226.781 882.008 226.933 883.473 227.238 884.832C227.542 886.191 228.011 887.398 228.644 888.453C229.3 889.484 230.109 890.293 231.07 890.879C232.054 891.441 233.214 891.723 234.55 891.723C236.402 891.723 237.914 891.336 239.085 890.562C240.257 889.766 241.136 888.676 241.722 887.293C242.308 885.91 242.648 884.316 242.742 882.512V877.906C242.695 876.43 242.496 875.105 242.144 873.934C241.792 872.738 241.3 871.719 240.667 870.875C240.035 870.031 239.214 869.375 238.207 868.906C237.199 868.438 236.003 868.203 234.621 868.203C233.285 868.203 232.125 868.508 231.14 869.117C230.179 869.703 229.371 870.512 228.714 871.543C228.082 872.574 227.601 873.793 227.273 875.199C226.945 876.582 226.781 878.082 226.781 879.699ZM266.334 869.082V899H256.209V860.961H265.702L266.334 869.082ZM264.858 878.645H262.116C262.116 875.832 262.479 873.301 263.205 871.051C263.932 868.777 264.952 866.844 266.264 865.25C267.577 863.633 269.135 862.402 270.94 861.559C272.768 860.691 274.807 860.258 277.057 860.258C278.838 860.258 280.467 860.516 281.944 861.031C283.42 861.547 284.686 862.367 285.741 863.492C286.819 864.617 287.639 866.105 288.202 867.957C288.788 869.809 289.08 872.07 289.08 874.742V899H278.885V874.707C278.885 873.02 278.651 871.707 278.182 870.77C277.713 869.832 277.022 869.176 276.108 868.801C275.217 868.402 274.116 868.203 272.803 868.203C271.444 868.203 270.26 868.473 269.252 869.012C268.268 869.551 267.448 870.301 266.791 871.262C266.159 872.199 265.678 873.301 265.35 874.566C265.022 875.832 264.858 877.191 264.858 878.645ZM314.466 888.488C314.466 887.762 314.255 887.105 313.833 886.52C313.411 885.934 312.626 885.395 311.478 884.902C310.353 884.387 308.724 883.918 306.591 883.496C304.669 883.074 302.876 882.547 301.212 881.914C299.572 881.258 298.142 880.473 296.923 879.559C295.728 878.645 294.79 877.566 294.111 876.324C293.431 875.059 293.091 873.617 293.091 872C293.091 870.406 293.431 868.906 294.111 867.5C294.814 866.094 295.81 864.852 297.099 863.773C298.411 862.672 300.005 861.816 301.88 861.207C303.779 860.574 305.911 860.258 308.279 860.258C311.583 860.258 314.419 860.785 316.786 861.84C319.177 862.895 321.005 864.348 322.271 866.199C323.56 868.027 324.204 870.113 324.204 872.457H314.079C314.079 871.473 313.868 870.594 313.447 869.82C313.048 869.023 312.415 868.402 311.548 867.957C310.704 867.488 309.603 867.254 308.243 867.254C307.118 867.254 306.146 867.453 305.325 867.852C304.505 868.227 303.872 868.742 303.427 869.398C303.005 870.031 302.794 870.734 302.794 871.508C302.794 872.094 302.911 872.621 303.146 873.09C303.404 873.535 303.814 873.945 304.376 874.32C304.939 874.695 305.665 875.047 306.556 875.375C307.47 875.68 308.595 875.961 309.931 876.219C312.673 876.781 315.122 877.52 317.279 878.434C319.435 879.324 321.146 880.543 322.411 882.09C323.677 883.613 324.31 885.617 324.31 888.102C324.31 889.789 323.935 891.336 323.185 892.742C322.435 894.148 321.357 895.379 319.95 896.434C318.544 897.465 316.857 898.273 314.888 898.859C312.943 899.422 310.751 899.703 308.314 899.703C304.775 899.703 301.775 899.07 299.314 897.805C296.876 896.539 295.025 894.934 293.759 892.988C292.517 891.02 291.896 889.004 291.896 886.941H301.493C301.54 888.324 301.892 889.438 302.548 890.281C303.228 891.125 304.083 891.734 305.115 892.109C306.169 892.484 307.306 892.672 308.525 892.672C309.837 892.672 310.927 892.496 311.794 892.145C312.661 891.77 313.318 891.277 313.763 890.668C314.232 890.035 314.466 889.309 314.466 888.488Z" fill="white"/>
</g>
<defs>
<clipPath id="clip0_705_12">
<rect width="552" height="960" fill="white"/>
</clipPath>
</defs>
</svg>
