<svg width="552" height="960" viewBox="0 0 552 960" fill="none" xmlns="http://www.w3.org/2000/svg">
<g clip-path="url(#clip0_705_18)">
<rect width="552" height="960" fill="url(#paint0_linear_705_18)"/>
<path d="M191.311 250.186C203.741 250.186 213.474 253.938 220.51 261.443C227.663 268.948 231.24 279.209 231.24 292.226V349.745H196.764V296.799C196.764 291.522 195.298 287.418 192.366 284.486C189.434 281.554 185.447 280.089 180.405 280.089C175.362 280.089 171.375 281.554 168.444 284.486C165.512 287.418 164.046 291.522 164.046 296.799V349.745H129.57V296.799C129.57 291.522 128.104 287.418 125.172 284.486C122.358 281.554 118.429 280.089 113.387 280.089C108.227 280.089 104.181 281.554 101.25 284.486C98.3181 287.418 96.8523 291.522 96.8523 296.799V349.745H62.3758V251.065H96.8523V264.082C99.9012 259.86 103.83 256.518 108.638 254.055C113.563 251.475 119.192 250.186 125.524 250.186C132.795 250.186 139.244 251.769 144.873 254.935C150.619 258.101 155.134 262.557 158.417 268.303C161.935 262.909 166.567 258.57 172.313 255.287C178.06 251.886 184.392 250.186 191.311 250.186ZM289.003 350.976C279.152 350.976 270.299 348.924 262.442 344.82C254.702 340.716 248.604 334.852 244.148 327.23C239.692 319.608 237.464 310.637 237.464 300.317C237.464 290.115 239.692 281.203 244.148 273.58C248.722 265.958 254.878 260.095 262.618 255.99C270.475 251.886 279.328 249.834 289.179 249.834C299.029 249.834 307.824 251.886 315.564 255.99C323.421 260.095 329.577 265.958 334.033 273.58C338.607 281.203 340.893 290.115 340.893 300.317C340.893 310.519 338.607 319.49 334.033 327.23C329.577 334.852 323.421 340.716 315.564 344.82C307.707 348.924 298.853 350.976 289.003 350.976ZM289.003 321.073C293.811 321.073 297.798 319.314 300.964 315.796C304.247 312.161 305.889 307.001 305.889 300.317C305.889 293.633 304.247 288.532 300.964 285.014C297.798 281.496 293.869 279.737 289.179 279.737C284.488 279.737 280.559 281.496 277.393 285.014C274.227 288.532 272.644 293.633 272.644 300.317C272.644 307.119 274.168 312.278 277.217 315.796C280.266 319.314 284.195 321.073 289.003 321.073ZM382.36 268.479C386.23 262.85 390.921 258.394 396.432 255.111C401.944 251.827 407.866 250.186 414.198 250.186V286.949H404.524C397.019 286.949 391.449 288.415 387.813 291.346C384.178 294.278 382.36 299.379 382.36 306.65V349.745H347.884V251.065H382.36V268.479ZM513.805 299.262C513.805 301.959 513.629 304.656 513.277 307.353H448.018C448.37 312.747 449.836 316.793 452.415 319.49C455.113 322.07 458.513 323.36 462.618 323.36C468.364 323.36 472.468 320.78 474.931 315.62H511.694C510.169 322.422 507.179 328.52 502.723 333.914C498.384 339.191 492.872 343.354 486.188 346.403C479.504 349.452 472.116 350.976 464.025 350.976C454.292 350.976 445.614 348.924 437.992 344.82C430.487 340.716 424.565 334.852 420.226 327.23C416.004 319.608 413.893 310.637 413.893 300.317C413.893 289.998 416.004 281.085 420.226 273.58C424.447 265.958 430.311 260.095 437.816 255.99C445.438 251.886 454.174 249.834 464.025 249.834C473.758 249.834 482.377 251.827 489.882 255.814C497.387 259.801 503.251 265.548 507.472 273.053C511.694 280.44 513.805 289.177 513.805 299.262ZM478.625 290.643C478.625 286.421 477.217 283.138 474.403 280.792C471.589 278.33 468.071 277.098 463.849 277.098C459.627 277.098 456.168 278.271 453.471 280.616C450.774 282.844 449.015 286.186 448.194 290.643H478.625Z" fill="url(#paint1_linear_705_18)"/>
<path d="M615.336 349.745L605.31 340.247C594.17 347.869 580.86 351.68 565.38 351.68C555.647 351.68 547.146 350.097 539.875 346.931C532.722 343.765 527.152 339.308 523.164 333.562C519.295 327.816 517.36 321.191 517.36 313.686C517.36 306.18 519.295 299.379 523.164 293.281C527.152 287.066 533.073 282.024 540.93 278.154C537.999 274.401 535.888 270.825 534.598 267.424C533.308 264.023 532.663 260.388 532.663 256.518C532.663 250.42 534.246 244.85 537.412 239.807C540.579 234.765 545.211 230.778 551.308 227.846C557.524 224.797 564.853 223.273 573.296 223.273C581.856 223.273 589.127 224.856 595.108 228.022C601.088 231.071 605.544 235.175 608.476 240.335C611.525 245.378 612.991 250.889 612.874 256.87H581.036C581.036 254.173 580.273 252.12 578.749 250.713C577.224 249.306 575.348 248.602 573.12 248.602C570.775 248.602 568.781 249.306 567.139 250.713C565.615 252.003 564.853 253.821 564.853 256.166C564.853 260.271 567.784 265.254 573.648 271.118L602.671 299.438C603.727 297.327 604.841 294.806 606.013 291.874L609.531 285.542H643.656L638.555 295.392C634.333 305.477 629.701 313.979 624.659 320.897L654.21 349.745H615.336ZM567.667 324.064C573.882 324.064 579.394 322.715 584.202 320.018L559.752 296.623C556.703 298.5 554.416 300.669 552.892 303.132C551.367 305.594 550.605 308.115 550.605 310.695C550.605 314.448 552.129 317.614 555.178 320.194C558.227 322.774 562.39 324.064 567.667 324.064Z" fill="url(#paint2_linear_705_18)"/>
<path d="M191.311 446.852C203.741 446.852 213.474 450.604 220.51 458.109C227.663 465.614 231.24 475.875 231.24 488.892V546.411H196.764V493.465C196.764 488.188 195.298 484.084 192.366 481.152C189.434 478.22 185.447 476.755 180.405 476.755C175.362 476.755 171.375 478.22 168.444 481.152C165.512 484.084 164.046 488.188 164.046 493.465V546.411H129.57V493.465C129.57 488.188 128.104 484.084 125.172 481.152C122.358 478.22 118.429 476.755 113.387 476.755C108.227 476.755 104.181 478.22 101.25 481.152C98.3181 484.084 96.8523 488.188 96.8523 493.465V546.411H62.3758V447.731H96.8523V460.748C99.9012 456.526 103.83 453.184 108.638 450.721C113.563 448.142 119.192 446.852 125.524 446.852C132.795 446.852 139.244 448.435 144.873 451.601C150.619 454.767 155.134 459.223 158.417 464.969C161.935 459.575 166.567 455.236 172.313 451.953C178.06 448.552 184.392 446.852 191.311 446.852ZM289.003 547.642C279.152 547.642 270.299 545.59 262.442 541.486C254.702 537.382 248.604 531.518 244.148 523.896C239.692 516.274 237.464 507.303 237.464 496.983C237.464 486.781 239.692 477.869 244.148 470.246C248.722 462.624 254.878 456.761 262.618 452.656C270.475 448.552 279.328 446.5 289.179 446.5C299.029 446.5 307.824 448.552 315.564 452.656C323.421 456.761 329.577 462.624 334.033 470.246C338.607 477.869 340.893 486.781 340.893 496.983C340.893 507.185 338.607 516.156 334.033 523.896C329.577 531.518 323.421 537.382 315.564 541.486C307.707 545.59 298.853 547.642 289.003 547.642ZM289.003 517.739C293.811 517.739 297.798 515.98 300.964 512.462C304.247 508.827 305.889 503.667 305.889 496.983C305.889 490.299 304.247 485.198 300.964 481.68C297.798 478.162 293.869 476.403 289.179 476.403C284.488 476.403 280.559 478.162 277.393 481.68C274.227 485.198 272.644 490.299 272.644 496.983C272.644 503.785 274.168 508.944 277.217 512.462C280.266 515.98 284.195 517.739 289.003 517.739ZM382.36 465.145C386.23 459.516 390.921 455.06 396.432 451.777C401.944 448.493 407.866 446.852 414.198 446.852V483.615H404.524C397.019 483.615 391.449 485.081 387.813 488.012C384.178 490.944 382.36 496.045 382.36 503.316V546.411H347.884V447.731H382.36V465.145ZM513.805 495.928C513.805 498.625 513.629 501.322 513.277 504.019H448.018C448.37 509.413 449.836 513.459 452.415 516.156C455.113 518.736 458.513 520.026 462.618 520.026C468.364 520.026 472.468 517.446 474.931 512.286H511.694C510.169 519.088 507.179 525.186 502.723 530.58C498.384 535.857 492.872 540.02 486.188 543.069C479.504 546.118 472.116 547.642 464.025 547.642C454.292 547.642 445.614 545.59 437.992 541.486C430.487 537.382 424.565 531.518 420.226 523.896C416.004 516.274 413.893 507.303 413.893 496.983C413.893 486.664 416.004 477.751 420.226 470.246C424.447 462.624 430.311 456.761 437.816 452.656C445.438 448.552 454.174 446.5 464.025 446.5C473.758 446.5 482.377 448.493 489.882 452.48C497.387 456.467 503.251 462.214 507.472 469.719C511.694 477.106 513.805 485.843 513.805 495.928ZM478.625 487.309C478.625 483.087 477.217 479.804 474.403 477.458C471.589 474.996 468.071 473.764 463.849 473.764C459.627 473.764 456.168 474.937 453.471 477.282C450.774 479.51 449.015 482.852 448.194 487.309H478.625Z" fill="url(#paint3_linear_705_18)"/>
<path d="M615.336 546.411L605.31 536.913C594.17 544.535 580.86 548.346 565.38 548.346C555.647 548.346 547.146 546.763 539.875 543.597C532.722 540.431 527.152 535.974 523.164 530.228C519.295 524.482 517.36 517.857 517.36 510.352C517.36 502.846 519.295 496.045 523.164 489.947C527.152 483.732 533.073 478.69 540.93 474.82C537.999 471.067 535.888 467.491 534.598 464.09C533.308 460.689 532.663 457.054 532.663 453.184C532.663 447.086 534.246 441.516 537.412 436.473C540.579 431.431 545.211 427.444 551.308 424.512C557.524 421.463 564.853 419.939 573.296 419.939C581.856 419.939 589.127 421.522 595.108 424.688C601.088 427.737 605.544 431.841 608.476 437.001C611.525 442.044 612.991 447.555 612.874 453.536H581.036C581.036 450.839 580.273 448.786 578.749 447.379C577.224 445.972 575.348 445.268 573.12 445.268C570.775 445.268 568.781 445.972 567.139 447.379C565.615 448.669 564.853 450.487 564.853 452.832C564.853 456.937 567.784 461.92 573.648 467.784L602.671 496.104C603.727 493.993 604.841 491.472 606.013 488.54L609.531 482.208H643.656L638.555 492.058C634.333 502.143 629.701 510.645 624.659 517.563L654.21 546.411H615.336ZM567.667 520.73C573.882 520.73 579.394 519.381 584.202 516.684L559.752 493.289C556.703 495.166 554.416 497.335 552.892 499.798C551.367 502.26 550.605 504.781 550.605 507.361C550.605 511.114 552.129 514.28 555.178 516.86C558.227 519.44 562.39 520.73 567.667 520.73Z" fill="url(#paint4_linear_705_18)"/>
<g filter="url(#filter0_dddddd_705_18)">
<path d="M191.311 348.519C203.741 348.519 213.474 352.271 220.51 359.776C227.663 367.281 231.24 377.542 231.24 390.559V448.078H196.764V395.132C196.764 389.855 195.298 385.751 192.366 382.819C189.434 379.887 185.447 378.422 180.405 378.422C175.362 378.422 171.375 379.887 168.444 382.819C165.512 385.751 164.046 389.855 164.046 395.132V448.078H129.57V395.132C129.57 389.855 128.104 385.751 125.172 382.819C122.358 379.887 118.429 378.422 113.387 378.422C108.227 378.422 104.181 379.887 101.25 382.819C98.3181 385.751 96.8523 389.855 96.8523 395.132V448.078H62.3758V349.398H96.8523V362.415C99.9012 358.193 103.83 354.851 108.638 352.388C113.563 349.809 119.192 348.519 125.524 348.519C132.795 348.519 139.244 350.102 144.873 353.268C150.619 356.434 155.134 360.89 158.417 366.636C161.935 361.242 166.567 356.903 172.313 353.62C178.06 350.219 184.392 348.519 191.311 348.519ZM289.003 449.309C279.152 449.309 270.299 447.257 262.442 443.153C254.702 439.049 248.604 433.185 244.148 425.563C239.692 417.941 237.464 408.97 237.464 398.65C237.464 388.448 239.692 379.536 244.148 371.913C248.722 364.291 254.878 358.428 262.618 354.323C270.475 350.219 279.328 348.167 289.179 348.167C299.029 348.167 307.824 350.219 315.564 354.323C323.421 358.428 329.577 364.291 334.033 371.913C338.607 379.536 340.893 388.448 340.893 398.65C340.893 408.852 338.607 417.823 334.033 425.563C329.577 433.185 323.421 439.049 315.564 443.153C307.707 447.257 298.853 449.309 289.003 449.309ZM289.003 419.406C293.811 419.406 297.798 417.647 300.964 414.129C304.247 410.494 305.889 405.334 305.889 398.65C305.889 391.966 304.247 386.865 300.964 383.347C297.798 379.829 293.869 378.07 289.179 378.07C284.488 378.07 280.559 379.829 277.393 383.347C274.227 386.865 272.644 391.966 272.644 398.65C272.644 405.452 274.168 410.611 277.217 414.129C280.266 417.647 284.195 419.406 289.003 419.406ZM382.36 366.812C386.23 361.183 390.921 356.727 396.432 353.444C401.944 350.16 407.866 348.519 414.198 348.519V385.282H404.524C397.019 385.282 391.449 386.748 387.813 389.679C384.178 392.611 382.36 397.712 382.36 404.983V448.078H347.884V349.398H382.36V366.812ZM513.805 397.595C513.805 400.292 513.629 402.989 513.277 405.686H448.018C448.37 411.08 449.836 415.126 452.415 417.823C455.113 420.403 458.513 421.693 462.618 421.693C468.364 421.693 472.468 419.113 474.931 413.953H511.694C510.169 420.755 507.179 426.853 502.723 432.247C498.384 437.524 492.872 441.687 486.188 444.736C479.504 447.785 472.116 449.309 464.025 449.309C454.292 449.309 445.614 447.257 437.992 443.153C430.487 439.049 424.565 433.185 420.226 425.563C416.004 417.941 413.893 408.97 413.893 398.65C413.893 388.331 416.004 379.418 420.226 371.913C424.447 364.291 430.311 358.428 437.816 354.323C445.438 350.219 454.174 348.167 464.025 348.167C473.758 348.167 482.377 350.16 489.882 354.147C497.387 358.134 503.251 363.881 507.472 371.386C511.694 378.773 513.805 387.51 513.805 397.595ZM478.625 388.976C478.625 384.754 477.217 381.471 474.403 379.125C471.589 376.663 468.071 375.431 463.849 375.431C459.627 375.431 456.168 376.604 453.471 378.949C450.774 381.177 449.015 384.519 448.194 388.976H478.625Z" fill="url(#paint5_linear_705_18)"/>
<path d="M615.336 448.078L605.31 438.58C594.17 446.202 580.86 450.013 565.38 450.013C555.647 450.013 547.146 448.43 539.875 445.264C532.722 442.098 527.152 437.641 523.164 431.895C519.295 426.149 517.36 419.524 517.36 412.019C517.36 404.513 519.295 397.712 523.164 391.614C527.152 385.399 533.073 380.357 540.93 376.487C537.999 372.734 535.888 369.158 534.598 365.757C533.308 362.356 532.663 358.721 532.663 354.851C532.663 348.753 534.246 343.183 537.412 338.14C540.579 333.098 545.211 329.111 551.308 326.179C557.524 323.13 564.853 321.606 573.296 321.606C581.856 321.606 589.127 323.189 595.108 326.355C601.088 329.404 605.544 333.508 608.476 338.668C611.525 343.711 612.991 349.222 612.874 355.203H581.036C581.036 352.506 580.273 350.453 578.749 349.046C577.224 347.639 575.348 346.935 573.12 346.935C570.775 346.935 568.781 347.639 567.139 349.046C565.615 350.336 564.853 352.154 564.853 354.499C564.853 358.604 567.784 363.587 573.648 369.451L602.671 397.771C603.727 395.66 604.841 393.139 606.013 390.207L609.531 383.875H643.656L638.555 393.725C634.333 403.81 629.701 412.312 624.659 419.23L654.21 448.078H615.336ZM567.667 422.397C573.882 422.397 579.394 421.048 584.202 418.351L559.752 394.956C556.703 396.833 554.416 399.002 552.892 401.465C551.367 403.927 550.605 406.448 550.605 409.028C550.605 412.781 552.129 415.947 555.178 418.527C558.227 421.107 562.39 422.397 567.667 422.397Z" fill="url(#paint6_linear_705_18)"/>
</g>
<g filter="url(#filter1_dddddd_705_18)">
<path d="M191.311 545.185C203.741 545.185 213.474 548.937 220.51 556.442C227.663 563.948 231.24 574.208 231.24 587.225V644.744H196.764V591.798C196.764 586.521 195.298 582.417 192.366 579.485C189.434 576.554 185.447 575.088 180.405 575.088C175.362 575.088 171.375 576.554 168.444 579.485C165.512 582.417 164.046 586.521 164.046 591.798V644.744H129.57V591.798C129.57 586.521 128.104 582.417 125.172 579.485C122.358 576.554 118.429 575.088 113.387 575.088C108.227 575.088 104.181 576.554 101.25 579.485C98.3181 582.417 96.8523 586.521 96.8523 591.798V644.744H62.3758V546.064H96.8523V559.081C99.9012 554.859 103.83 551.517 108.638 549.055C113.563 546.475 119.192 545.185 125.524 545.185C132.795 545.185 139.244 546.768 144.873 549.934C150.619 553.1 155.134 557.556 158.417 563.303C161.935 557.908 166.567 553.569 172.313 550.286C178.06 546.885 184.392 545.185 191.311 545.185ZM289.003 645.976C279.152 645.976 270.299 643.924 262.442 639.819C254.702 635.715 248.604 629.851 244.148 622.229C239.692 614.607 237.464 605.636 237.464 595.316C237.464 585.114 239.692 576.202 244.148 568.58C248.722 560.957 254.878 555.094 262.618 550.99C270.475 546.885 279.328 544.833 289.179 544.833C299.029 544.833 307.824 546.885 315.564 550.99C323.421 555.094 329.577 560.957 334.033 568.58C338.607 576.202 340.893 585.114 340.893 595.316C340.893 605.519 338.607 614.49 334.033 622.229C329.577 629.851 323.421 635.715 315.564 639.819C307.707 643.924 298.853 645.976 289.003 645.976ZM289.003 616.073C293.811 616.073 297.798 614.314 300.964 610.796C304.247 607.16 305.889 602.001 305.889 595.316C305.889 588.632 304.247 583.531 300.964 580.013C297.798 576.495 293.869 574.736 289.179 574.736C284.488 574.736 280.559 576.495 277.393 580.013C274.227 583.531 272.644 588.632 272.644 595.316C272.644 602.118 274.168 607.278 277.217 610.796C280.266 614.314 284.195 616.073 289.003 616.073ZM382.36 563.478C386.23 557.85 390.921 553.394 396.432 550.11C401.944 546.827 407.866 545.185 414.198 545.185V581.948H404.524C397.019 581.948 391.449 583.414 387.813 586.345C384.178 589.277 382.36 594.378 382.36 601.649V644.744H347.884V546.064H382.36V563.478ZM513.805 594.261C513.805 596.958 513.629 599.655 513.277 602.352H448.018C448.37 607.747 449.836 611.792 452.415 614.49C455.113 617.069 458.513 618.359 462.618 618.359C468.364 618.359 472.468 615.779 474.931 610.62H511.694C510.169 617.421 507.179 623.519 502.723 628.913C498.384 634.19 492.872 638.353 486.188 641.402C479.504 644.451 472.116 645.976 464.025 645.976C454.292 645.976 445.614 643.924 437.992 639.819C430.487 635.715 424.565 629.851 420.226 622.229C416.004 614.607 413.893 605.636 413.893 595.316C413.893 584.997 416.004 576.085 420.226 568.58C424.447 560.957 430.311 555.094 437.816 550.99C445.438 546.885 454.174 544.833 464.025 544.833C473.758 544.833 482.377 546.827 489.882 550.814C497.387 554.801 503.251 560.547 507.472 568.052C511.694 575.44 513.805 584.176 513.805 594.261ZM478.625 585.642C478.625 581.42 477.217 578.137 474.403 575.791C471.589 573.329 468.071 572.098 463.849 572.098C459.627 572.098 456.168 573.27 453.471 575.616C450.774 577.844 449.015 581.186 448.194 585.642H478.625Z" fill="url(#paint7_linear_705_18)"/>
<path d="M615.336 644.744L605.31 635.246C594.17 642.868 580.86 646.679 565.38 646.679C555.647 646.679 547.146 645.096 539.875 641.93C532.722 638.764 527.152 634.308 523.164 628.562C519.295 622.815 517.36 616.19 517.36 608.685C517.36 601.18 519.295 594.378 523.164 588.28C527.152 582.065 533.073 577.023 540.93 573.153C537.999 569.4 535.888 565.824 534.598 562.423C533.308 559.022 532.663 555.387 532.663 551.517C532.663 545.419 534.246 539.849 537.412 534.807C540.579 529.764 545.211 525.777 551.308 522.845C557.524 519.797 564.853 518.272 573.296 518.272C581.856 518.272 589.127 519.855 595.108 523.021C601.088 526.07 605.544 530.175 608.476 535.334C611.525 540.377 612.991 545.888 612.874 551.869H581.036C581.036 549.172 580.273 547.12 578.749 545.713C577.224 544.305 575.348 543.602 573.12 543.602C570.775 543.602 568.781 544.305 567.139 545.713C565.615 547.002 564.853 548.82 564.853 551.165C564.853 555.27 567.784 560.254 573.648 566.117L602.671 594.437C603.727 592.326 604.841 589.805 606.013 586.873L609.531 580.541H643.656L638.555 590.391C634.333 600.476 629.701 608.978 624.659 615.897L654.21 644.744H615.336ZM567.667 619.063C573.882 619.063 579.394 617.714 584.202 615.017L559.752 591.623C556.703 593.499 554.416 595.668 552.892 598.131C551.367 600.593 550.605 603.115 550.605 605.695C550.605 609.447 552.129 612.613 555.178 615.193C558.227 617.773 562.39 619.063 567.667 619.063Z" fill="url(#paint8_linear_705_18)"/>
</g>
<path d="M191.311 643.518C203.741 643.518 213.474 647.27 220.51 654.775C227.663 662.281 231.24 672.541 231.24 685.558V743.077H196.764V690.131C196.764 684.854 195.298 680.75 192.366 677.818C189.434 674.887 185.447 673.421 180.405 673.421C175.362 673.421 171.375 674.887 168.444 677.818C165.512 680.75 164.046 684.854 164.046 690.131V743.077H129.57V690.131C129.57 684.854 128.104 680.75 125.172 677.818C122.358 674.887 118.429 673.421 113.387 673.421C108.227 673.421 104.181 674.887 101.25 677.818C98.3181 680.75 96.8523 684.854 96.8523 690.131V743.077H62.3758V644.397H96.8523V657.414C99.9012 653.192 103.83 649.85 108.638 647.388C113.563 644.808 119.192 643.518 125.524 643.518C132.795 643.518 139.244 645.101 144.873 648.267C150.619 651.433 155.134 655.889 158.417 661.636C161.935 656.241 166.567 651.902 172.313 648.619C178.06 645.218 184.392 643.518 191.311 643.518ZM289.003 744.309C279.152 744.309 270.299 742.257 262.442 738.152C254.702 734.048 248.604 728.185 244.148 720.562C239.692 712.94 237.464 703.969 237.464 693.649C237.464 683.447 239.692 674.535 244.148 666.913C248.722 659.29 254.878 653.427 262.618 649.323C270.475 645.218 279.328 643.166 289.179 643.166C299.029 643.166 307.824 645.218 315.564 649.323C323.421 653.427 329.577 659.29 334.033 666.913C338.607 674.535 340.893 683.447 340.893 693.649C340.893 703.852 338.607 712.823 334.033 720.562C329.577 728.185 323.421 734.048 315.564 738.152C307.707 742.257 298.853 744.309 289.003 744.309ZM289.003 714.406C293.811 714.406 297.798 712.647 300.964 709.129C304.247 705.493 305.889 700.334 305.889 693.649C305.889 686.965 304.247 681.864 300.964 678.346C297.798 674.828 293.869 673.069 289.179 673.069C284.488 673.069 280.559 674.828 277.393 678.346C274.227 681.864 272.644 686.965 272.644 693.649C272.644 700.451 274.168 705.611 277.217 709.129C280.266 712.647 284.195 714.406 289.003 714.406ZM382.36 661.811C386.23 656.183 390.921 651.727 396.432 648.443C401.944 645.16 407.866 643.518 414.198 643.518V680.281H404.524C397.019 680.281 391.449 681.747 387.813 684.679C384.178 687.61 382.36 692.711 382.36 699.982V743.077H347.884V644.397H382.36V661.811ZM513.805 692.594C513.805 695.291 513.629 697.988 513.277 700.685H448.018C448.37 706.08 449.836 710.125 452.415 712.823C455.113 715.402 458.513 716.692 462.618 716.692C468.364 716.692 472.468 714.112 474.931 708.953H511.694C510.169 715.754 507.179 721.852 502.723 727.246C498.384 732.523 492.872 736.686 486.188 739.735C479.504 742.784 472.116 744.309 464.025 744.309C454.292 744.309 445.614 742.257 437.992 738.152C430.487 734.048 424.565 728.185 420.226 720.562C416.004 712.94 413.893 703.969 413.893 693.649C413.893 683.33 416.004 674.418 420.226 666.913C424.447 659.29 430.311 653.427 437.816 649.323C445.438 645.218 454.174 643.166 464.025 643.166C473.758 643.166 482.377 645.16 489.882 649.147C497.387 653.134 503.251 658.88 507.472 666.385C511.694 673.773 513.805 682.509 513.805 692.594ZM478.625 683.975C478.625 679.753 477.217 676.47 474.403 674.124C471.589 671.662 468.071 670.431 463.849 670.431C459.627 670.431 456.168 671.603 453.471 673.949C450.774 676.177 449.015 679.519 448.194 683.975H478.625Z" fill="url(#paint9_linear_705_18)"/>
<path d="M58.3516 779.031L71.5 816.156L84.5781 779.031H98.4297V830.219H87.8477V816.226L88.9023 792.074L75.0859 830.219H67.8438L54.0625 792.109L55.1172 816.226V830.219H44.5703V779.031H58.3516ZM102.511 810.847C102.511 807.074 103.237 803.711 104.69 800.758C106.143 797.804 108.229 795.519 110.948 793.902C113.69 792.285 116.866 791.476 120.475 791.476C125.608 791.476 129.792 793.047 133.026 796.187C136.284 799.328 138.1 803.594 138.475 808.984L138.546 811.586C138.546 817.422 136.917 822.109 133.659 825.648C130.401 829.164 126.03 830.922 120.546 830.922C115.061 830.922 110.679 829.164 107.397 825.648C104.14 822.133 102.511 817.351 102.511 811.304V810.847ZM112.671 811.586C112.671 815.195 113.35 817.961 114.71 819.883C116.069 821.781 118.015 822.73 120.546 822.73C123.007 822.73 124.929 821.793 126.311 819.918C127.694 818.019 128.386 814.996 128.386 810.847C128.386 807.308 127.694 804.566 126.311 802.621C124.929 800.676 122.983 799.703 120.475 799.703C117.991 799.703 116.069 800.676 114.71 802.621C113.35 804.543 112.671 807.531 112.671 811.586ZM154.088 782.828V792.179H160.592V799.633H154.088V818.617C154.088 820.023 154.357 821.031 154.896 821.64C155.435 822.25 156.467 822.554 157.99 822.554C159.115 822.554 160.111 822.472 160.978 822.308V830.008C158.986 830.617 156.935 830.922 154.826 830.922C147.701 830.922 144.068 827.324 143.927 820.129V799.633H138.373V792.179H143.927V782.828H154.088ZM174.094 830.219H163.899V792.179H174.094V830.219ZM163.301 782.336C163.301 780.812 163.805 779.558 164.813 778.574C165.844 777.59 167.239 777.097 168.997 777.097C170.731 777.097 172.114 777.59 173.145 778.574C174.176 779.558 174.692 780.812 174.692 782.336C174.692 783.883 174.165 785.148 173.11 786.133C172.079 787.117 170.708 787.609 168.997 787.609C167.286 787.609 165.903 787.117 164.848 786.133C163.817 785.148 163.301 783.883 163.301 782.336ZM178.035 810.847C178.035 807.074 178.761 803.711 180.214 800.758C181.667 797.804 183.753 795.519 186.472 793.902C189.214 792.285 192.39 791.476 196 791.476C201.132 791.476 205.316 793.047 208.55 796.187C211.808 799.328 213.625 803.594 214 808.984L214.07 811.586C214.07 817.422 212.441 822.109 209.183 825.648C205.925 829.164 201.554 830.922 196.07 830.922C190.585 830.922 186.203 829.164 182.921 825.648C179.664 822.133 178.035 817.351 178.035 811.304V810.847ZM188.195 811.586C188.195 815.195 188.875 817.961 190.234 819.883C191.593 821.781 193.539 822.73 196.07 822.73C198.531 822.73 200.453 821.793 201.835 819.918C203.218 818.019 203.91 814.996 203.91 810.847C203.91 807.308 203.218 804.566 201.835 802.621C200.453 800.676 198.507 799.703 196 799.703C193.515 799.703 191.593 800.676 190.234 802.621C188.875 804.543 188.195 807.531 188.195 811.586ZM226.799 792.179L227.116 796.574C229.834 793.176 233.479 791.476 238.049 791.476C242.08 791.476 245.08 792.66 247.049 795.027C249.018 797.394 250.026 800.933 250.073 805.644V830.219H239.913V805.89C239.913 803.734 239.444 802.176 238.506 801.215C237.569 800.23 236.01 799.738 233.83 799.738C230.971 799.738 228.827 800.957 227.397 803.394V830.219H217.237V792.179H226.799ZM85.0703 907.75C83.1719 910.023 80.4883 911.793 77.0195 913.058C73.5508 914.301 69.707 914.922 65.4883 914.922C61.0586 914.922 57.168 913.961 53.8164 912.039C50.4883 910.094 47.9102 907.281 46.082 903.601C44.2773 899.922 43.3516 895.597 43.3047 890.629V887.148C43.3047 882.039 44.1602 877.621 45.8711 873.894C47.6055 870.144 50.0898 867.285 53.3242 865.316C56.582 863.324 60.3906 862.328 64.75 862.328C70.8203 862.328 75.5664 863.781 78.9883 866.687C82.4102 869.57 84.4375 873.777 85.0703 879.308H74.8047C74.3359 876.379 73.293 874.234 71.6758 872.875C70.082 871.515 67.8789 870.836 65.0664 870.836C61.4805 870.836 58.75 872.183 56.875 874.879C55 877.574 54.0508 881.582 54.0273 886.902V890.172C54.0273 895.539 55.0469 899.594 57.0859 902.336C59.125 905.078 62.1133 906.449 66.0508 906.449C70.0117 906.449 72.8359 905.605 74.5234 903.918V895.094H64.9258V887.324H85.0703V907.75ZM111.475 885.707C110.093 885.519 108.874 885.426 107.819 885.426C103.975 885.426 101.456 886.726 100.261 889.328V914.219H90.1005V876.179H99.6981L99.9794 880.715C102.018 877.222 104.843 875.476 108.452 875.476C109.577 875.476 110.632 875.629 111.616 875.933L111.475 885.707ZM134.506 914.219C134.037 913.304 133.697 912.168 133.486 910.808C131.025 913.551 127.826 914.922 123.888 914.922C120.162 914.922 117.068 913.844 114.607 911.687C112.17 909.531 110.951 906.812 110.951 903.531C110.951 899.5 112.439 896.406 115.416 894.25C118.416 892.094 122.74 891.004 128.388 890.98H133.064V888.801C133.064 887.043 132.607 885.636 131.693 884.582C130.802 883.527 129.385 883 127.439 883C125.728 883 124.381 883.41 123.396 884.23C122.435 885.051 121.955 886.176 121.955 887.605H111.795C111.795 885.402 112.474 883.363 113.834 881.488C115.193 879.613 117.115 878.148 119.599 877.094C122.084 876.015 124.873 875.476 127.967 875.476C132.654 875.476 136.369 876.66 139.111 879.027C141.877 881.371 143.26 884.676 143.26 888.941V905.429C143.283 909.039 143.787 911.769 144.771 913.621V914.219H134.506ZM126.103 907.152C127.603 907.152 128.986 906.824 130.252 906.168C131.517 905.488 132.455 904.586 133.064 903.461V896.922H129.267C124.181 896.922 121.474 898.679 121.146 902.195L121.111 902.793C121.111 904.058 121.556 905.101 122.447 905.922C123.338 906.742 124.556 907.152 126.103 907.152ZM182.426 895.551C182.426 901.41 181.09 906.109 178.419 909.648C175.77 913.164 172.184 914.922 167.661 914.922C163.817 914.922 160.712 913.586 158.344 910.914V928.844H148.184V876.179H157.606L157.958 879.906C160.419 876.953 163.63 875.476 167.59 875.476C172.278 875.476 175.923 877.211 178.524 880.679C181.126 884.148 182.426 888.929 182.426 895.023V895.551ZM172.266 894.812C172.266 891.273 171.633 888.543 170.368 886.621C169.126 884.699 167.309 883.738 164.919 883.738C161.731 883.738 159.54 884.957 158.344 887.394V902.969C159.587 905.476 161.801 906.73 164.989 906.73C169.84 906.73 172.266 902.758 172.266 894.812ZM195.789 880.328C198.484 877.094 201.871 875.476 205.949 875.476C214.199 875.476 218.382 880.269 218.5 889.855V914.219H208.339V890.136C208.339 887.957 207.871 886.351 206.933 885.32C205.996 884.265 204.437 883.738 202.257 883.738C199.281 883.738 197.125 884.886 195.789 887.183V914.219H185.628V860.219H195.789V880.328ZM234.006 914.219H223.811V876.179H234.006V914.219ZM223.213 866.336C223.213 864.812 223.717 863.558 224.725 862.574C225.756 861.59 227.151 861.097 228.909 861.097C230.643 861.097 232.026 861.59 233.057 862.574C234.088 863.558 234.604 864.812 234.604 866.336C234.604 867.883 234.077 869.148 233.022 870.133C231.991 871.117 230.62 871.609 228.909 871.609C227.198 871.609 225.815 871.117 224.76 870.133C223.729 869.148 223.213 867.883 223.213 866.336ZM255.349 906.73C257.224 906.73 258.747 906.215 259.919 905.183C261.091 904.152 261.7 902.781 261.747 901.07H271.275C271.251 903.648 270.548 906.015 269.165 908.172C267.783 910.304 265.884 911.969 263.47 913.164C261.079 914.336 258.431 914.922 255.525 914.922C250.087 914.922 245.798 913.199 242.658 909.754C239.517 906.285 237.947 901.504 237.947 895.41V894.742C237.947 888.883 239.505 884.207 242.622 880.715C245.74 877.222 250.017 875.476 255.454 875.476C260.212 875.476 264.021 876.836 266.88 879.554C269.763 882.25 271.228 885.847 271.275 890.347H261.747C261.7 888.379 261.091 886.785 259.919 885.566C258.747 884.324 257.2 883.703 255.279 883.703C252.911 883.703 251.118 884.57 249.9 886.304C248.704 888.015 248.107 890.804 248.107 894.672V895.726C248.107 899.64 248.704 902.453 249.9 904.164C251.095 905.875 252.911 906.73 255.349 906.73ZM294.797 903.707C294.797 902.465 294.176 901.492 292.934 900.789C291.715 900.062 289.746 899.418 287.027 898.855C277.981 896.957 273.457 893.113 273.457 887.324C273.457 883.949 274.852 881.136 277.641 878.886C280.453 876.613 284.121 875.476 288.645 875.476C293.473 875.476 297.328 876.613 300.211 878.886C303.117 881.16 304.57 884.113 304.57 887.746H294.41C294.41 886.293 293.942 885.097 293.004 884.16C292.067 883.199 290.602 882.719 288.61 882.719C286.899 882.719 285.574 883.105 284.637 883.879C283.699 884.652 283.231 885.636 283.231 886.832C283.231 887.957 283.758 888.871 284.813 889.574C285.891 890.254 287.695 890.851 290.227 891.367C292.758 891.859 294.891 892.422 296.625 893.054C301.992 895.023 304.676 898.433 304.676 903.285C304.676 906.754 303.188 909.566 300.211 911.722C297.235 913.855 293.391 914.922 288.68 914.922C285.492 914.922 282.656 914.359 280.172 913.234C277.711 912.086 275.777 910.527 274.371 908.558C272.965 906.566 272.262 904.422 272.262 902.125H281.895C281.988 903.929 282.656 905.312 283.899 906.273C285.141 907.234 286.805 907.715 288.891 907.715C290.836 907.715 292.301 907.351 293.285 906.625C294.293 905.875 294.797 904.902 294.797 903.707Z" fill="white"/>
</g>
<defs>
<filter id="filter0_dddddd_705_18" x="13.5148" y="321.606" width="689.556" height="238.345" filterUnits="userSpaceOnUse" color-interpolation-filters="sRGB">
<feFlood flood-opacity="0" result="BackgroundImageFix"/>
<feColorMatrix in="SourceAlpha" type="matrix" values="0 0 0 0 0 0 0 0 0 0 0 0 0 0 0 0 0 0 127 0" result="hardAlpha"/>
<feOffset dy="1.69014"/>
<feGaussianBlur stdDeviation="0.676057"/>
<feColorMatrix type="matrix" values="0 0 0 0 0 0 0 0 0 0 0 0 0 0 0 0 0 0 0.0196802 0"/>
<feBlend mode="normal" in2="BackgroundImageFix" result="effect1_dropShadow_705_18"/>
<feColorMatrix in="SourceAlpha" type="matrix" values="0 0 0 0 0 0 0 0 0 0 0 0 0 0 0 0 0 0 127 0" result="hardAlpha"/>
<feOffset dy="4.06165"/>
<feGaussianBlur stdDeviation="1.62466"/>
<feColorMatrix type="matrix" values="0 0 0 0 0 0 0 0 0 0 0 0 0 0 0 0 0 0 0.0282725 0"/>
<feBlend mode="normal" in2="effect1_dropShadow_705_18" result="effect2_dropShadow_705_18"/>
<feColorMatrix in="SourceAlpha" type="matrix" values="0 0 0 0 0 0 0 0 0 0 0 0 0 0 0 0 0 0 127 0" result="hardAlpha"/>
<feOffset dy="7.64772"/>
<feGaussianBlur stdDeviation="3.05909"/>
<feColorMatrix type="matrix" values="0 0 0 0 0 0 0 0 0 0 0 0 0 0 0 0 0 0 0.035 0"/>
<feBlend mode="normal" in2="effect2_dropShadow_705_18" result="effect3_dropShadow_705_18"/>
<feColorMatrix in="SourceAlpha" type="matrix" values="0 0 0 0 0 0 0 0 0 0 0 0 0 0 0 0 0 0 127 0" result="hardAlpha"/>
<feOffset dy="13.6422"/>
<feGaussianBlur stdDeviation="5.45689"/>
<feColorMatrix type="matrix" values="0 0 0 0 0 0 0 0 0 0 0 0 0 0 0 0 0 0 0.0417275 0"/>
<feBlend mode="normal" in2="effect3_dropShadow_705_18" result="effect4_dropShadow_705_18"/>
<feColorMatrix in="SourceAlpha" type="matrix" values="0 0 0 0 0 0 0 0 0 0 0 0 0 0 0 0 0 0 127 0" result="hardAlpha"/>
<feOffset dy="25.5163"/>
<feGaussianBlur stdDeviation="10.2065"/>
<feColorMatrix type="matrix" values="0 0 0 0 0 0 0 0 0 0 0 0 0 0 0 0 0 0 0.0503198 0"/>
<feBlend mode="normal" in2="effect4_dropShadow_705_18" result="effect5_dropShadow_705_18"/>
<feColorMatrix in="SourceAlpha" type="matrix" values="0 0 0 0 0 0 0 0 0 0 0 0 0 0 0 0 0 0 127 0" result="hardAlpha"/>
<feOffset dy="61.0765"/>
<feGaussianBlur stdDeviation="24.4306"/>
<feColorMatrix type="matrix" values="0 0 0 0 0 0 0 0 0 0 0 0 0 0 0 0 0 0 0.07 0"/>
<feBlend mode="normal" in2="effect5_dropShadow_705_18" result="effect6_dropShadow_705_18"/>
<feBlend mode="normal" in="SourceGraphic" in2="effect6_dropShadow_705_18" result="shape"/>
</filter>
<filter id="filter1_dddddd_705_18" x="13.5148" y="518.272" width="689.556" height="238.345" filterUnits="userSpaceOnUse" color-interpolation-filters="sRGB">
<feFlood flood-opacity="0" result="BackgroundImageFix"/>
<feColorMatrix in="SourceAlpha" type="matrix" values="0 0 0 0 0 0 0 0 0 0 0 0 0 0 0 0 0 0 127 0" result="hardAlpha"/>
<feOffset dy="1.69014"/>
<feGaussianBlur stdDeviation="0.676057"/>
<feColorMatrix type="matrix" values="0 0 0 0 0 0 0 0 0 0 0 0 0 0 0 0 0 0 0.0196802 0"/>
<feBlend mode="normal" in2="BackgroundImageFix" result="effect1_dropShadow_705_18"/>
<feColorMatrix in="SourceAlpha" type="matrix" values="0 0 0 0 0 0 0 0 0 0 0 0 0 0 0 0 0 0 127 0" result="hardAlpha"/>
<feOffset dy="4.06165"/>
<feGaussianBlur stdDeviation="1.62466"/>
<feColorMatrix type="matrix" values="0 0 0 0 0 0 0 0 0 0 0 0 0 0 0 0 0 0 0.0282725 0"/>
<feBlend mode="normal" in2="effect1_dropShadow_705_18" result="effect2_dropShadow_705_18"/>
<feColorMatrix in="SourceAlpha" type="matrix" values="0 0 0 0 0 0 0 0 0 0 0 0 0 0 0 0 0 0 127 0" result="hardAlpha"/>
<feOffset dy="7.64772"/>
<feGaussianBlur stdDeviation="3.05909"/>
<feColorMatrix type="matrix" values="0 0 0 0 0 0 0 0 0 0 0 0 0 0 0 0 0 0 0.035 0"/>
<feBlend mode="normal" in2="effect2_dropShadow_705_18" result="effect3_dropShadow_705_18"/>
<feColorMatrix in="SourceAlpha" type="matrix" values="0 0 0 0 0 0 0 0 0 0 0 0 0 0 0 0 0 0 127 0" result="hardAlpha"/>
<feOffset dy="13.6422"/>
<feGaussianBlur stdDeviation="5.45689"/>
<feColorMatrix type="matrix" values="0 0 0 0 0 0 0 0 0 0 0 0 0 0 0 0 0 0 0.0417275 0"/>
<feBlend mode="normal" in2="effect3_dropShadow_705_18" result="effect4_dropShadow_705_18"/>
<feColorMatrix in="SourceAlpha" type="matrix" values="0 0 0 0 0 0 0 0 0 0 0 0 0 0 0 0 0 0 127 0" result="hardAlpha"/>
<feOffset dy="25.5163"/>
<feGaussianBlur stdDeviation="10.2065"/>
<feColorMatrix type="matrix" values="0 0 0 0 0 0 0 0 0 0 0 0 0 0 0 0 0 0 0.0503198 0"/>
<feBlend mode="normal" in2="effect4_dropShadow_705_18" result="effect5_dropShadow_705_18"/>
<feColorMatrix in="SourceAlpha" type="matrix" values="0 0 0 0 0 0 0 0 0 0 0 0 0 0 0 0 0 0 127 0" result="hardAlpha"/>
<feOffset dy="61.0765"/>
<feGaussianBlur stdDeviation="24.4306"/>
<feColorMatrix type="matrix" values="0 0 0 0 0 0 0 0 0 0 0 0 0 0 0 0 0 0 0.07 0"/>
<feBlend mode="normal" in2="effect5_dropShadow_705_18" result="effect6_dropShadow_705_18"/>
<feBlend mode="normal" in="SourceGraphic" in2="effect6_dropShadow_705_18" result="shape"/>
</filter>
<linearGradient id="paint0_linear_705_18" x1="0" y1="480" x2="552" y2="480" gradientUnits="userSpaceOnUse">
<stop stop-color="#505285"/>
<stop offset="0.12" stop-color="#585E92"/>
<stop offset="0.25" stop-color="#65689F"/>
</linearGradient>
<linearGradient id="paint1_linear_705_18" x1="353.632" y1="155.745" x2="353.632" y2="419.595" gradientUnits="userSpaceOnUse">
<stop stop-color="#F17259"/>
<stop offset="1" stop-color="#F9B284"/>
</linearGradient>
<linearGradient id="paint2_linear_705_18" x1="353.632" y1="155.745" x2="353.632" y2="419.595" gradientUnits="userSpaceOnUse">
<stop stop-color="#B29DC4"/>
<stop offset="1" stop-color="#E3DEDF"/>
</linearGradient>
<linearGradient id="paint3_linear_705_18" x1="353.632" y1="352.411" x2="353.632" y2="616.261" gradientUnits="userSpaceOnUse">
<stop stop-color="#F17259"/>
<stop offset="1" stop-color="#F9B284"/>
</linearGradient>
<linearGradient id="paint4_linear_705_18" x1="353.632" y1="352.411" x2="353.632" y2="616.261" gradientUnits="userSpaceOnUse">
<stop stop-color="#B29DC4"/>
<stop offset="1" stop-color="#E3DEDF"/>
</linearGradient>
<linearGradient id="paint5_linear_705_18" x1="353.632" y1="254.078" x2="353.632" y2="517.928" gradientUnits="userSpaceOnUse">
<stop stop-color="#F17259"/>
<stop offset="1" stop-color="#F9B284"/>
</linearGradient>
<linearGradient id="paint6_linear_705_18" x1="353.632" y1="254.078" x2="353.632" y2="517.928" gradientUnits="userSpaceOnUse">
<stop stop-color="#B29DC4"/>
<stop offset="1" stop-color="#E3DEDF"/>
</linearGradient>
<linearGradient id="paint7_linear_705_18" x1="353.632" y1="450.744" x2="353.632" y2="714.595" gradientUnits="userSpaceOnUse">
<stop stop-color="#F17259"/>
<stop offset="1" stop-color="#F9B284"/>
</linearGradient>
<linearGradient id="paint8_linear_705_18" x1="353.632" y1="450.744" x2="353.632" y2="714.595" gradientUnits="userSpaceOnUse">
<stop stop-color="#B29DC4"/>
<stop offset="1" stop-color="#E3DEDF"/>
</linearGradient>
<linearGradient id="paint9_linear_705_18" x1="285.532" y1="549.077" x2="285.532" y2="812.928" gradientUnits="userSpaceOnUse">
<stop stop-color="#F17259"/>
<stop offset="1" stop-color="#F9B284"/>
</linearGradient>
<clipPath id="clip0_705_18">
<rect width="552" height="960" fill="white"/>
</clipPath>
</defs>
</svg>
