<svg width="552" height="960" viewBox="0 0 552 960" fill="none" xmlns="http://www.w3.org/2000/svg">
<g clip-path="url(#clip0_1101_36)">
<rect width="552" height="960" fill="url(#paint0_linear_1101_36)"/>
<path d="M191.311 250.186C203.741 250.186 213.474 253.938 220.51 261.443C227.663 268.948 231.24 279.209 231.24 292.226V349.745H196.764V296.799C196.764 291.522 195.298 287.418 192.366 284.486C189.434 281.554 185.447 280.089 180.405 280.089C175.362 280.089 171.375 281.554 168.444 284.486C165.512 287.418 164.046 291.522 164.046 296.799V349.745H129.57V296.799C129.57 291.522 128.104 287.418 125.172 284.486C122.358 281.554 118.429 280.089 113.387 280.089C108.227 280.089 104.181 281.554 101.25 284.486C98.3181 287.418 96.8523 291.522 96.8523 296.799V349.745H62.3758V251.065H96.8523V264.082C99.9012 259.86 103.83 256.518 108.638 254.055C113.563 251.475 119.192 250.186 125.524 250.186C132.795 250.186 139.244 251.769 144.873 254.935C150.619 258.101 155.134 262.557 158.417 268.303C161.935 262.909 166.567 258.57 172.313 255.287C178.06 251.886 184.392 250.186 191.311 250.186ZM289.003 350.976C279.152 350.976 270.299 348.924 262.442 344.82C254.702 340.716 248.604 334.852 244.148 327.23C239.692 319.608 237.464 310.637 237.464 300.317C237.464 290.115 239.692 281.203 244.148 273.58C248.722 265.958 254.878 260.095 262.618 255.99C270.475 251.886 279.328 249.834 289.179 249.834C299.029 249.834 307.824 251.886 315.564 255.99C323.421 260.095 329.577 265.958 334.033 273.58C338.607 281.203 340.893 290.115 340.893 300.317C340.893 310.519 338.607 319.49 334.033 327.23C329.577 334.852 323.421 340.716 315.564 344.82C307.707 348.924 298.853 350.976 289.003 350.976ZM289.003 321.073C293.811 321.073 297.798 319.314 300.964 315.796C304.247 312.161 305.889 307.001 305.889 300.317C305.889 293.633 304.247 288.532 300.964 285.014C297.798 281.496 293.869 279.737 289.179 279.737C284.488 279.737 280.559 281.496 277.393 285.014C274.227 288.532 272.644 293.633 272.644 300.317C272.644 307.119 274.168 312.278 277.217 315.796C280.266 319.314 284.195 321.073 289.003 321.073ZM382.36 268.479C386.23 262.85 390.921 258.394 396.432 255.111C401.944 251.827 407.866 250.186 414.198 250.186V286.949H404.524C397.019 286.949 391.449 288.415 387.813 291.346C384.178 294.278 382.36 299.379 382.36 306.65V349.745H347.884V251.065H382.36V268.479ZM513.805 299.262C513.805 301.959 513.629 304.656 513.277 307.353H448.018C448.37 312.747 449.836 316.793 452.415 319.49C455.113 322.07 458.513 323.36 462.618 323.36C468.364 323.36 472.468 320.78 474.931 315.62H511.694C510.169 322.422 507.179 328.52 502.723 333.914C498.384 339.191 492.872 343.354 486.188 346.403C479.504 349.452 472.116 350.976 464.025 350.976C454.292 350.976 445.614 348.924 437.992 344.82C430.487 340.716 424.565 334.852 420.226 327.23C416.004 319.608 413.893 310.637 413.893 300.317C413.893 289.998 416.004 281.085 420.226 273.58C424.447 265.958 430.311 260.095 437.816 255.99C445.438 251.886 454.174 249.834 464.025 249.834C473.758 249.834 482.377 251.827 489.882 255.814C497.387 259.801 503.251 265.548 507.472 273.053C511.694 280.44 513.805 289.177 513.805 299.262ZM478.625 290.643C478.625 286.421 477.217 283.138 474.403 280.792C471.589 278.33 468.071 277.098 463.849 277.098C459.627 277.098 456.168 278.271 453.471 280.616C450.774 282.844 449.015 286.186 448.194 290.643H478.625Z" fill="url(#paint1_linear_1101_36)"/>
<path d="M615.336 349.745L605.31 340.247C594.17 347.869 580.86 351.68 565.38 351.68C555.647 351.68 547.146 350.097 539.875 346.931C532.722 343.765 527.152 339.308 523.164 333.562C519.295 327.816 517.36 321.191 517.36 313.686C517.36 306.18 519.295 299.379 523.164 293.281C527.152 287.066 533.073 282.024 540.93 278.154C537.999 274.401 535.888 270.825 534.598 267.424C533.308 264.023 532.663 260.388 532.663 256.518C532.663 250.42 534.246 244.85 537.412 239.807C540.579 234.765 545.211 230.778 551.308 227.846C557.524 224.797 564.853 223.273 573.296 223.273C581.856 223.273 589.127 224.856 595.108 228.022C601.088 231.071 605.544 235.175 608.476 240.335C611.525 245.378 612.991 250.889 612.874 256.87H581.036C581.036 254.173 580.273 252.12 578.749 250.713C577.224 249.306 575.348 248.602 573.12 248.602C570.775 248.602 568.781 249.306 567.139 250.713C565.615 252.003 564.853 253.821 564.853 256.166C564.853 260.271 567.784 265.254 573.648 271.118L602.671 299.438C603.727 297.327 604.841 294.806 606.013 291.874L609.531 285.542H643.656L638.555 295.392C634.333 305.477 629.701 313.979 624.659 320.897L654.21 349.745H615.336ZM567.667 324.064C573.882 324.064 579.394 322.715 584.202 320.018L559.752 296.623C556.703 298.5 554.416 300.669 552.892 303.132C551.367 305.594 550.605 308.115 550.605 310.695C550.605 314.448 552.129 317.614 555.178 320.194C558.227 322.774 562.39 324.064 567.667 324.064Z" fill="url(#paint2_linear_1101_36)"/>
<path d="M191.311 446.852C203.741 446.852 213.474 450.604 220.51 458.109C227.663 465.614 231.24 475.875 231.24 488.892V546.411H196.764V493.465C196.764 488.188 195.298 484.084 192.366 481.152C189.434 478.22 185.447 476.755 180.405 476.755C175.362 476.755 171.375 478.22 168.444 481.152C165.512 484.084 164.046 488.188 164.046 493.465V546.411H129.57V493.465C129.57 488.188 128.104 484.084 125.172 481.152C122.358 478.22 118.429 476.755 113.387 476.755C108.227 476.755 104.181 478.22 101.25 481.152C98.3181 484.084 96.8523 488.188 96.8523 493.465V546.411H62.3758V447.731H96.8523V460.748C99.9012 456.526 103.83 453.184 108.638 450.721C113.563 448.142 119.192 446.852 125.524 446.852C132.795 446.852 139.244 448.435 144.873 451.601C150.619 454.767 155.134 459.223 158.417 464.969C161.935 459.575 166.567 455.236 172.313 451.953C178.06 448.552 184.392 446.852 191.311 446.852ZM289.003 547.642C279.152 547.642 270.299 545.59 262.442 541.486C254.702 537.382 248.604 531.518 244.148 523.896C239.692 516.274 237.464 507.303 237.464 496.983C237.464 486.781 239.692 477.869 244.148 470.246C248.722 462.624 254.878 456.761 262.618 452.656C270.475 448.552 279.328 446.5 289.179 446.5C299.029 446.5 307.824 448.552 315.564 452.656C323.421 456.761 329.577 462.624 334.033 470.246C338.607 477.869 340.893 486.781 340.893 496.983C340.893 507.185 338.607 516.156 334.033 523.896C329.577 531.518 323.421 537.382 315.564 541.486C307.707 545.59 298.853 547.642 289.003 547.642ZM289.003 517.739C293.811 517.739 297.798 515.98 300.964 512.462C304.247 508.827 305.889 503.667 305.889 496.983C305.889 490.299 304.247 485.198 300.964 481.68C297.798 478.162 293.869 476.403 289.179 476.403C284.488 476.403 280.559 478.162 277.393 481.68C274.227 485.198 272.644 490.299 272.644 496.983C272.644 503.785 274.168 508.944 277.217 512.462C280.266 515.98 284.195 517.739 289.003 517.739ZM382.36 465.145C386.23 459.516 390.921 455.06 396.432 451.777C401.944 448.493 407.866 446.852 414.198 446.852V483.615H404.524C397.019 483.615 391.449 485.081 387.813 488.012C384.178 490.944 382.36 496.045 382.36 503.316V546.411H347.884V447.731H382.36V465.145ZM513.805 495.928C513.805 498.625 513.629 501.322 513.277 504.019H448.018C448.37 509.413 449.836 513.459 452.415 516.156C455.113 518.736 458.513 520.026 462.618 520.026C468.364 520.026 472.468 517.446 474.931 512.286H511.694C510.169 519.088 507.179 525.186 502.723 530.58C498.384 535.857 492.872 540.02 486.188 543.069C479.504 546.118 472.116 547.642 464.025 547.642C454.292 547.642 445.614 545.59 437.992 541.486C430.487 537.382 424.565 531.518 420.226 523.896C416.004 516.274 413.893 507.303 413.893 496.983C413.893 486.664 416.004 477.751 420.226 470.246C424.447 462.624 430.311 456.761 437.816 452.656C445.438 448.552 454.174 446.5 464.025 446.5C473.758 446.5 482.377 448.493 489.882 452.48C497.387 456.467 503.251 462.214 507.472 469.719C511.694 477.106 513.805 485.843 513.805 495.928ZM478.625 487.309C478.625 483.087 477.217 479.804 474.403 477.458C471.589 474.996 468.071 473.764 463.849 473.764C459.627 473.764 456.168 474.937 453.471 477.282C450.774 479.51 449.015 482.852 448.194 487.309H478.625Z" fill="url(#paint3_linear_1101_36)"/>
<path d="M615.336 546.411L605.31 536.913C594.17 544.535 580.86 548.346 565.38 548.346C555.647 548.346 547.146 546.763 539.875 543.597C532.722 540.431 527.152 535.974 523.164 530.228C519.295 524.482 517.36 517.857 517.36 510.352C517.36 502.846 519.295 496.045 523.164 489.947C527.152 483.732 533.073 478.69 540.93 474.82C537.999 471.067 535.888 467.491 534.598 464.09C533.308 460.689 532.663 457.054 532.663 453.184C532.663 447.086 534.246 441.516 537.412 436.473C540.579 431.431 545.211 427.444 551.308 424.512C557.524 421.463 564.853 419.939 573.296 419.939C581.856 419.939 589.127 421.522 595.108 424.688C601.088 427.737 605.544 431.841 608.476 437.001C611.525 442.044 612.991 447.555 612.874 453.536H581.036C581.036 450.839 580.273 448.786 578.749 447.379C577.224 445.972 575.348 445.268 573.12 445.268C570.775 445.268 568.781 445.972 567.139 447.379C565.615 448.669 564.853 450.487 564.853 452.832C564.853 456.937 567.784 461.92 573.648 467.784L602.671 496.104C603.727 493.993 604.841 491.472 606.013 488.54L609.531 482.208H643.656L638.555 492.058C634.333 502.143 629.701 510.645 624.659 517.563L654.21 546.411H615.336ZM567.667 520.73C573.882 520.73 579.394 519.381 584.202 516.684L559.752 493.289C556.703 495.166 554.416 497.335 552.892 499.798C551.367 502.26 550.605 504.781 550.605 507.361C550.605 511.114 552.129 514.28 555.178 516.86C558.227 519.44 562.39 520.73 567.667 520.73Z" fill="url(#paint4_linear_1101_36)"/>
<g filter="url(#filter0_dddddd_1101_36)">
<path d="M191.311 348.519C203.741 348.519 213.474 352.271 220.51 359.776C227.663 367.281 231.24 377.542 231.24 390.559V448.078H196.764V395.132C196.764 389.855 195.298 385.751 192.366 382.819C189.434 379.887 185.447 378.422 180.405 378.422C175.362 378.422 171.375 379.887 168.444 382.819C165.512 385.751 164.046 389.855 164.046 395.132V448.078H129.57V395.132C129.57 389.855 128.104 385.751 125.172 382.819C122.358 379.887 118.429 378.422 113.387 378.422C108.227 378.422 104.181 379.887 101.25 382.819C98.3181 385.751 96.8523 389.855 96.8523 395.132V448.078H62.3758V349.398H96.8523V362.415C99.9012 358.193 103.83 354.851 108.638 352.388C113.563 349.809 119.192 348.519 125.524 348.519C132.795 348.519 139.244 350.102 144.873 353.268C150.619 356.434 155.134 360.89 158.417 366.636C161.935 361.242 166.567 356.903 172.313 353.62C178.06 350.219 184.392 348.519 191.311 348.519ZM289.003 449.309C279.152 449.309 270.299 447.257 262.442 443.153C254.702 439.049 248.604 433.185 244.148 425.563C239.692 417.941 237.464 408.97 237.464 398.65C237.464 388.448 239.692 379.536 244.148 371.913C248.722 364.291 254.878 358.428 262.618 354.323C270.475 350.219 279.328 348.167 289.179 348.167C299.029 348.167 307.824 350.219 315.564 354.323C323.421 358.428 329.577 364.291 334.033 371.913C338.607 379.536 340.893 388.448 340.893 398.65C340.893 408.852 338.607 417.823 334.033 425.563C329.577 433.185 323.421 439.049 315.564 443.153C307.707 447.257 298.853 449.309 289.003 449.309ZM289.003 419.406C293.811 419.406 297.798 417.647 300.964 414.129C304.247 410.494 305.889 405.334 305.889 398.65C305.889 391.966 304.247 386.865 300.964 383.347C297.798 379.829 293.869 378.07 289.179 378.07C284.488 378.07 280.559 379.829 277.393 383.347C274.227 386.865 272.644 391.966 272.644 398.65C272.644 405.452 274.168 410.611 277.217 414.129C280.266 417.647 284.195 419.406 289.003 419.406ZM382.36 366.812C386.23 361.183 390.921 356.727 396.432 353.444C401.944 350.16 407.866 348.519 414.198 348.519V385.282H404.524C397.019 385.282 391.449 386.748 387.813 389.679C384.178 392.611 382.36 397.712 382.36 404.983V448.078H347.884V349.398H382.36V366.812ZM513.805 397.595C513.805 400.292 513.629 402.989 513.277 405.686H448.018C448.37 411.08 449.836 415.126 452.415 417.823C455.113 420.403 458.513 421.693 462.618 421.693C468.364 421.693 472.468 419.113 474.931 413.953H511.694C510.169 420.755 507.179 426.853 502.723 432.247C498.384 437.524 492.872 441.687 486.188 444.736C479.504 447.785 472.116 449.309 464.025 449.309C454.292 449.309 445.614 447.257 437.992 443.153C430.487 439.049 424.565 433.185 420.226 425.563C416.004 417.941 413.893 408.97 413.893 398.65C413.893 388.331 416.004 379.418 420.226 371.913C424.447 364.291 430.311 358.428 437.816 354.323C445.438 350.219 454.174 348.167 464.025 348.167C473.758 348.167 482.377 350.16 489.882 354.147C497.387 358.134 503.251 363.881 507.472 371.386C511.694 378.773 513.805 387.51 513.805 397.595ZM478.625 388.976C478.625 384.754 477.217 381.471 474.403 379.125C471.589 376.663 468.071 375.431 463.849 375.431C459.627 375.431 456.168 376.604 453.471 378.949C450.774 381.177 449.015 384.519 448.194 388.976H478.625Z" fill="url(#paint5_linear_1101_36)"/>
<path d="M615.336 448.078L605.31 438.58C594.17 446.202 580.86 450.013 565.38 450.013C555.647 450.013 547.146 448.43 539.875 445.264C532.722 442.098 527.152 437.641 523.164 431.895C519.295 426.149 517.36 419.524 517.36 412.019C517.36 404.513 519.295 397.712 523.164 391.614C527.152 385.399 533.073 380.357 540.93 376.487C537.999 372.734 535.888 369.158 534.598 365.757C533.308 362.356 532.663 358.721 532.663 354.851C532.663 348.753 534.246 343.183 537.412 338.14C540.579 333.098 545.211 329.111 551.308 326.179C557.524 323.13 564.853 321.606 573.296 321.606C581.856 321.606 589.127 323.189 595.108 326.355C601.088 329.404 605.544 333.508 608.476 338.668C611.525 343.711 612.991 349.222 612.874 355.203H581.036C581.036 352.506 580.273 350.453 578.749 349.046C577.224 347.639 575.348 346.935 573.12 346.935C570.775 346.935 568.781 347.639 567.139 349.046C565.615 350.336 564.853 352.154 564.853 354.499C564.853 358.604 567.784 363.587 573.648 369.451L602.671 397.771C603.727 395.66 604.841 393.139 606.013 390.207L609.531 383.875H643.656L638.555 393.725C634.333 403.81 629.701 412.312 624.659 419.23L654.21 448.078H615.336ZM567.667 422.397C573.882 422.397 579.394 421.048 584.202 418.351L559.752 394.956C556.703 396.833 554.416 399.002 552.892 401.465C551.367 403.927 550.605 406.448 550.605 409.028C550.605 412.781 552.129 415.947 555.178 418.527C558.227 421.107 562.39 422.397 567.667 422.397Z" fill="url(#paint6_linear_1101_36)"/>
</g>
<g filter="url(#filter1_dddddd_1101_36)">
<path d="M191.311 545.185C203.741 545.185 213.474 548.938 220.51 556.443C227.663 563.948 231.24 574.209 231.24 587.225V644.745H196.764V591.799C196.764 586.522 195.298 582.417 192.366 579.486C189.434 576.554 185.447 575.088 180.405 575.088C175.362 575.088 171.375 576.554 168.444 579.486C165.512 582.417 164.046 586.522 164.046 591.799V644.745H129.57V591.799C129.57 586.522 128.104 582.417 125.172 579.486C122.358 576.554 118.429 575.088 113.387 575.088C108.227 575.088 104.181 576.554 101.25 579.486C98.3181 582.417 96.8523 586.522 96.8523 591.799V644.745H62.3758V546.065H96.8523V559.081C99.9012 554.86 103.83 551.517 108.638 549.055C113.563 546.475 119.192 545.185 125.524 545.185C132.795 545.185 139.244 546.768 144.873 549.934C150.619 553.101 155.134 557.557 158.417 563.303C161.935 557.909 166.567 553.57 172.313 550.286C178.06 546.885 184.392 545.185 191.311 545.185ZM289.003 645.976C279.152 645.976 270.299 643.924 262.442 639.819C254.702 635.715 248.604 629.852 244.148 622.229C239.692 614.607 237.464 605.636 237.464 595.317C237.464 585.114 239.692 576.202 244.148 568.58C248.722 560.957 254.878 555.094 262.618 550.99C270.475 546.885 279.328 544.833 289.179 544.833C299.029 544.833 307.824 546.885 315.564 550.99C323.421 555.094 329.577 560.957 334.033 568.58C338.607 576.202 340.893 585.114 340.893 595.317C340.893 605.519 338.607 614.49 334.033 622.229C329.577 629.852 323.421 635.715 315.564 639.819C307.707 643.924 298.853 645.976 289.003 645.976ZM289.003 616.073C293.811 616.073 297.798 614.314 300.964 610.796C304.247 607.161 305.889 602.001 305.889 595.317C305.889 588.632 304.247 583.531 300.964 580.013C297.798 576.495 293.869 574.736 289.179 574.736C284.488 574.736 280.559 576.495 277.393 580.013C274.227 583.531 272.644 588.632 272.644 595.317C272.644 602.118 274.168 607.278 277.217 610.796C280.266 614.314 284.195 616.073 289.003 616.073ZM382.36 563.479C386.23 557.85 390.921 553.394 396.432 550.11C401.944 546.827 407.866 545.185 414.198 545.185V581.948H404.524C397.019 581.948 391.449 583.414 387.813 586.346C384.178 589.277 382.36 594.379 382.36 601.649V644.745H347.884V546.065H382.36V563.479ZM513.805 594.261C513.805 596.958 513.629 599.656 513.277 602.353H448.018C448.37 607.747 449.836 611.793 452.415 614.49C455.113 617.07 458.513 618.36 462.618 618.36C468.364 618.36 472.468 615.78 474.931 610.62H511.694C510.169 617.421 507.179 623.519 502.723 628.914C498.384 634.191 492.872 638.354 486.188 641.403C479.504 644.451 472.116 645.976 464.025 645.976C454.292 645.976 445.614 643.924 437.992 639.819C430.487 635.715 424.565 629.852 420.226 622.229C416.004 614.607 413.893 605.636 413.893 595.317C413.893 584.997 416.004 576.085 420.226 568.58C424.447 560.957 430.311 555.094 437.816 550.99C445.438 546.885 454.174 544.833 464.025 544.833C473.758 544.833 482.377 546.827 489.882 550.814C497.387 554.801 503.251 560.547 507.472 568.052C511.694 575.44 513.805 584.176 513.805 594.261ZM478.625 585.642C478.625 581.421 477.217 578.137 474.403 575.792C471.589 573.329 468.071 572.098 463.849 572.098C459.627 572.098 456.168 573.27 453.471 575.616C450.774 577.844 449.015 581.186 448.194 585.642H478.625Z" fill="url(#paint7_linear_1101_36)"/>
<path d="M615.336 644.745L605.31 635.246C594.17 642.868 580.86 646.68 565.38 646.68C555.647 646.68 547.146 645.096 539.875 641.93C532.722 638.764 527.152 634.308 523.164 628.562C519.295 622.816 517.36 616.19 517.36 608.685C517.36 601.18 519.295 594.379 523.164 588.281C527.152 582.065 533.073 577.023 540.93 573.153C537.999 569.401 535.888 565.824 534.598 562.423C533.308 559.023 532.663 555.387 532.663 551.517C532.663 545.42 534.246 539.849 537.412 534.807C540.579 529.764 545.211 525.777 551.308 522.846C557.524 519.797 564.853 518.272 573.296 518.272C581.856 518.272 589.127 519.855 595.108 523.022C601.088 526.071 605.544 530.175 608.476 535.335C611.525 540.377 612.991 545.889 612.874 551.869H581.036C581.036 549.172 580.273 547.12 578.749 545.713C577.224 544.306 575.348 543.602 573.12 543.602C570.775 543.602 568.781 544.306 567.139 545.713C565.615 547.003 564.853 548.82 564.853 551.166C564.853 555.27 567.784 560.254 573.648 566.117L602.671 594.437C603.727 592.326 604.841 589.805 606.013 586.873L609.531 580.541H643.656L638.555 590.391C634.333 600.476 629.701 608.978 624.659 615.897L654.21 644.745H615.336ZM567.667 619.063C573.882 619.063 579.394 617.715 584.202 615.017L559.752 591.623C556.703 593.499 554.416 595.668 552.892 598.131C551.367 600.594 550.605 603.115 550.605 605.695C550.605 609.447 552.129 612.614 555.178 615.193C558.227 617.773 562.39 619.063 567.667 619.063Z" fill="url(#paint8_linear_1101_36)"/>
</g>
<path d="M191.311 643.518C203.741 643.518 213.474 647.271 220.51 654.776C227.663 662.281 231.24 672.542 231.24 685.558V743.078H196.764V690.132C196.764 684.855 195.298 680.75 192.366 677.819C189.434 674.887 185.447 673.421 180.405 673.421C175.362 673.421 171.375 674.887 168.444 677.819C165.512 680.75 164.046 684.855 164.046 690.132V743.078H129.57V690.132C129.57 684.855 128.104 680.75 125.172 677.819C122.358 674.887 118.429 673.421 113.387 673.421C108.227 673.421 104.181 674.887 101.25 677.819C98.3181 680.75 96.8523 684.855 96.8523 690.132V743.078H62.3758V644.398H96.8523V657.414C99.9012 653.193 103.83 649.85 108.638 647.388C113.563 644.808 119.192 643.518 125.524 643.518C132.795 643.518 139.244 645.101 144.873 648.267C150.619 651.434 155.134 655.89 158.417 661.636C161.935 656.242 166.567 651.903 172.313 648.619C178.06 645.218 184.392 643.518 191.311 643.518ZM289.003 744.309C279.152 744.309 270.299 742.257 262.442 738.152C254.702 734.048 248.604 728.185 244.148 720.562C239.692 712.94 237.464 703.969 237.464 693.65C237.464 683.447 239.692 674.535 244.148 666.913C248.722 659.29 254.878 653.427 262.618 649.323C270.475 645.218 279.328 643.166 289.179 643.166C299.029 643.166 307.824 645.218 315.564 649.323C323.421 653.427 329.577 659.29 334.033 666.913C338.607 674.535 340.893 683.447 340.893 693.65C340.893 703.852 338.607 712.823 334.033 720.562C329.577 728.185 323.421 734.048 315.564 738.152C307.707 742.257 298.853 744.309 289.003 744.309ZM289.003 714.406C293.811 714.406 297.798 712.647 300.964 709.129C304.247 705.494 305.889 700.334 305.889 693.65C305.889 686.965 304.247 681.864 300.964 678.346C297.798 674.828 293.869 673.069 289.179 673.069C284.488 673.069 280.559 674.828 277.393 678.346C274.227 681.864 272.644 686.965 272.644 693.65C272.644 700.451 274.168 705.611 277.217 709.129C280.266 712.647 284.195 714.406 289.003 714.406ZM382.36 661.812C386.23 656.183 390.921 651.727 396.432 648.443C401.944 645.16 407.866 643.518 414.198 643.518V680.281H404.524C397.019 680.281 391.449 681.747 387.813 684.679C384.178 687.61 382.36 692.712 382.36 699.982V743.078H347.884V644.398H382.36V661.812ZM513.805 692.594C513.805 695.291 513.629 697.989 513.277 700.686H448.018C448.37 706.08 449.836 710.126 452.415 712.823C455.113 715.403 458.513 716.693 462.618 716.693C468.364 716.693 472.468 714.113 474.931 708.953H511.694C510.169 715.754 507.179 721.852 502.723 727.247C498.384 732.524 492.872 736.687 486.188 739.736C479.504 742.784 472.116 744.309 464.025 744.309C454.292 744.309 445.614 742.257 437.992 738.152C430.487 734.048 424.565 728.185 420.226 720.562C416.004 712.94 413.893 703.969 413.893 693.65C413.893 683.33 416.004 674.418 420.226 666.913C424.447 659.29 430.311 653.427 437.816 649.323C445.438 645.218 454.174 643.166 464.025 643.166C473.758 643.166 482.377 645.16 489.882 649.147C497.387 653.134 503.251 658.88 507.472 666.385C511.694 673.773 513.805 682.509 513.805 692.594ZM478.625 683.975C478.625 679.754 477.217 676.47 474.403 674.125C471.589 671.662 468.071 670.431 463.849 670.431C459.627 670.431 456.168 671.603 453.471 673.949C450.774 676.177 449.015 679.519 448.194 683.975H478.625Z" fill="url(#paint9_linear_1101_36)"/>
<path d="M101.064 865.08C103.992 865.704 106.344 867.168 108.12 869.472C109.896 871.728 110.784 874.32 110.784 877.248C110.784 881.472 109.296 884.832 106.32 887.328C103.392 889.776 99.288 891 94.008 891H70.464V840.456H93.216C98.352 840.456 102.36 841.632 105.24 843.984C108.168 846.336 109.632 849.528 109.632 853.56C109.632 856.536 108.84 859.008 107.256 860.976C105.72 862.944 103.656 864.312 101.064 865.08ZM82.776 860.904H90.84C92.856 860.904 94.392 860.472 95.448 859.608C96.552 858.696 97.104 857.376 97.104 855.648C97.104 853.92 96.552 852.6 95.448 851.688C94.392 850.776 92.856 850.32 90.84 850.32H82.776V860.904ZM91.848 881.064C93.912 881.064 95.496 880.608 96.6 879.696C97.752 878.736 98.328 877.368 98.328 875.592C98.328 873.816 97.728 872.424 96.528 871.416C95.376 870.408 93.768 869.904 91.704 869.904H82.776V881.064H91.848ZM127.357 857.52C128.797 855.312 130.597 853.584 132.757 852.336C134.917 851.04 137.317 850.392 139.957 850.392V863.424H136.573C133.501 863.424 131.197 864.096 129.661 865.44C128.125 866.736 127.357 869.04 127.357 872.352V891H115.045V850.824H127.357V857.52ZM140.514 870.84C140.514 866.712 141.282 863.088 142.818 859.968C144.402 856.848 146.538 854.448 149.226 852.768C151.914 851.088 154.914 850.248 158.226 850.248C161.058 850.248 163.53 850.824 165.642 851.976C167.802 853.128 169.458 854.64 170.61 856.512V850.824H182.922V891H170.61V885.312C169.41 887.184 167.73 888.696 165.57 889.848C163.458 891 160.986 891.576 158.154 891.576C154.89 891.576 151.914 890.736 149.226 889.056C146.538 887.328 144.402 884.904 142.818 881.784C141.282 878.616 140.514 874.968 140.514 870.84ZM170.61 870.912C170.61 867.84 169.746 865.416 168.018 863.64C166.338 861.864 164.274 860.976 161.826 860.976C159.378 860.976 157.29 861.864 155.562 863.64C153.882 865.368 153.042 867.768 153.042 870.84C153.042 873.912 153.882 876.36 155.562 878.184C157.29 879.96 159.378 880.848 161.826 880.848C164.274 880.848 166.338 879.96 168.018 878.184C169.746 876.408 170.61 873.984 170.61 870.912ZM213.429 850.392C218.133 850.392 221.877 851.928 224.661 855C227.493 858.024 228.909 862.2 228.909 867.528V891H216.669V869.184C216.669 866.496 215.973 864.408 214.581 862.92C213.189 861.432 211.317 860.688 208.965 860.688C206.613 860.688 204.741 861.432 203.349 862.92C201.957 864.408 201.261 866.496 201.261 869.184V891H188.949V850.824H201.261V856.152C202.509 854.376 204.189 852.984 206.301 851.976C208.413 850.92 210.789 850.392 213.429 850.392ZM232.137 870.84C232.137 866.712 232.905 863.088 234.441 859.968C236.025 856.848 238.161 854.448 240.849 852.768C243.537 851.088 246.537 850.248 249.849 850.248C252.489 850.248 254.889 850.8 257.049 851.904C259.257 853.008 260.985 854.496 262.233 856.368V837.72H274.545V891H262.233V885.24C261.081 887.16 259.425 888.696 257.265 889.848C255.153 891 252.681 891.576 249.849 891.576C246.537 891.576 243.537 890.736 240.849 889.056C238.161 887.328 236.025 884.904 234.441 881.784C232.905 878.616 232.137 874.968 232.137 870.84ZM262.233 870.912C262.233 867.84 261.369 865.416 259.641 863.64C257.961 861.864 255.897 860.976 253.449 860.976C251.001 860.976 248.913 861.864 247.185 863.64C245.505 865.368 244.665 867.768 244.665 870.84C244.665 873.912 245.505 876.36 247.185 878.184C248.913 879.96 251.001 880.848 253.449 880.848C255.897 880.848 257.961 879.96 259.641 878.184C261.369 876.408 262.233 873.984 262.233 870.912ZM286.764 846.648C284.604 846.648 282.828 846.024 281.436 844.776C280.092 843.48 279.42 841.896 279.42 840.024C279.42 838.104 280.092 836.52 281.436 835.272C282.828 833.976 284.604 833.328 286.764 833.328C288.876 833.328 290.604 833.976 291.948 835.272C293.34 836.52 294.036 838.104 294.036 840.024C294.036 841.896 293.34 843.48 291.948 844.776C290.604 846.024 288.876 846.648 286.764 846.648ZM292.884 850.824V891H280.572V850.824H292.884ZM323.406 850.392C328.11 850.392 331.854 851.928 334.638 855C337.47 858.024 338.886 862.2 338.886 867.528V891H326.646V869.184C326.646 866.496 325.95 864.408 324.558 862.92C323.166 861.432 321.294 860.688 318.942 860.688C316.59 860.688 314.718 861.432 313.326 862.92C311.934 864.408 311.238 866.496 311.238 869.184V891H298.926V850.824H311.238V856.152C312.486 854.376 314.166 852.984 316.278 851.976C318.39 850.92 320.766 850.392 323.406 850.392ZM359.826 850.248C362.658 850.248 365.13 850.824 367.242 851.976C369.402 853.128 371.058 854.64 372.21 856.512V850.824H384.522V890.928C384.522 894.624 383.778 897.96 382.29 900.936C380.85 903.96 378.618 906.36 375.594 908.136C372.618 909.912 368.898 910.8 364.434 910.8C358.482 910.8 353.658 909.384 349.962 906.552C346.266 903.768 344.154 899.976 343.626 895.176H355.794C356.178 896.712 357.09 897.912 358.53 898.776C359.97 899.688 361.746 900.144 363.858 900.144C366.402 900.144 368.418 899.4 369.906 897.912C371.442 896.472 372.21 894.144 372.21 890.928V885.24C371.01 887.112 369.354 888.648 367.242 889.848C365.13 891 362.658 891.576 359.826 891.576C356.514 891.576 353.514 890.736 350.826 889.056C348.138 887.328 346.002 884.904 344.418 881.784C342.882 878.616 342.114 874.968 342.114 870.84C342.114 866.712 342.882 863.088 344.418 859.968C346.002 856.848 348.138 854.448 350.826 852.768C353.514 851.088 356.514 850.248 359.826 850.248ZM372.21 870.912C372.21 867.84 371.346 865.416 369.618 863.64C367.938 861.864 365.874 860.976 363.426 860.976C360.978 860.976 358.89 861.864 357.162 863.64C355.482 865.368 354.642 867.768 354.642 870.84C354.642 873.912 355.482 876.36 357.162 878.184C358.89 879.96 360.978 880.848 363.426 880.848C365.874 880.848 367.938 879.96 369.618 878.184C371.346 876.408 372.21 873.984 372.21 870.912Z" fill="white"/>
</g>
<defs>
<filter id="filter0_dddddd_1101_36" x="13.5138" y="321.606" width="689.558" height="238.345" filterUnits="userSpaceOnUse" color-interpolation-filters="sRGB">
<feFlood flood-opacity="0" result="BackgroundImageFix"/>
<feColorMatrix in="SourceAlpha" type="matrix" values="0 0 0 0 0 0 0 0 0 0 0 0 0 0 0 0 0 0 127 0" result="hardAlpha"/>
<feOffset dy="1.69014"/>
<feGaussianBlur stdDeviation="0.676057"/>
<feColorMatrix type="matrix" values="0 0 0 0 0 0 0 0 0 0 0 0 0 0 0 0 0 0 0.0196802 0"/>
<feBlend mode="normal" in2="BackgroundImageFix" result="effect1_dropShadow_1101_36"/>
<feColorMatrix in="SourceAlpha" type="matrix" values="0 0 0 0 0 0 0 0 0 0 0 0 0 0 0 0 0 0 127 0" result="hardAlpha"/>
<feOffset dy="4.06165"/>
<feGaussianBlur stdDeviation="1.62466"/>
<feColorMatrix type="matrix" values="0 0 0 0 0 0 0 0 0 0 0 0 0 0 0 0 0 0 0.0282725 0"/>
<feBlend mode="normal" in2="effect1_dropShadow_1101_36" result="effect2_dropShadow_1101_36"/>
<feColorMatrix in="SourceAlpha" type="matrix" values="0 0 0 0 0 0 0 0 0 0 0 0 0 0 0 0 0 0 127 0" result="hardAlpha"/>
<feOffset dy="7.64772"/>
<feGaussianBlur stdDeviation="3.05909"/>
<feColorMatrix type="matrix" values="0 0 0 0 0 0 0 0 0 0 0 0 0 0 0 0 0 0 0.035 0"/>
<feBlend mode="normal" in2="effect2_dropShadow_1101_36" result="effect3_dropShadow_1101_36"/>
<feColorMatrix in="SourceAlpha" type="matrix" values="0 0 0 0 0 0 0 0 0 0 0 0 0 0 0 0 0 0 127 0" result="hardAlpha"/>
<feOffset dy="13.6422"/>
<feGaussianBlur stdDeviation="5.45689"/>
<feColorMatrix type="matrix" values="0 0 0 0 0 0 0 0 0 0 0 0 0 0 0 0 0 0 0.0417275 0"/>
<feBlend mode="normal" in2="effect3_dropShadow_1101_36" result="effect4_dropShadow_1101_36"/>
<feColorMatrix in="SourceAlpha" type="matrix" values="0 0 0 0 0 0 0 0 0 0 0 0 0 0 0 0 0 0 127 0" result="hardAlpha"/>
<feOffset dy="25.5163"/>
<feGaussianBlur stdDeviation="10.2065"/>
<feColorMatrix type="matrix" values="0 0 0 0 0 0 0 0 0 0 0 0 0 0 0 0 0 0 0.0503198 0"/>
<feBlend mode="normal" in2="effect4_dropShadow_1101_36" result="effect5_dropShadow_1101_36"/>
<feColorMatrix in="SourceAlpha" type="matrix" values="0 0 0 0 0 0 0 0 0 0 0 0 0 0 0 0 0 0 127 0" result="hardAlpha"/>
<feOffset dy="61.0765"/>
<feGaussianBlur stdDeviation="24.4306"/>
<feColorMatrix type="matrix" values="0 0 0 0 0 0 0 0 0 0 0 0 0 0 0 0 0 0 0.07 0"/>
<feBlend mode="normal" in2="effect5_dropShadow_1101_36" result="effect6_dropShadow_1101_36"/>
<feBlend mode="normal" in="SourceGraphic" in2="effect6_dropShadow_1101_36" result="shape"/>
</filter>
<filter id="filter1_dddddd_1101_36" x="13.5138" y="518.272" width="689.558" height="238.345" filterUnits="userSpaceOnUse" color-interpolation-filters="sRGB">
<feFlood flood-opacity="0" result="BackgroundImageFix"/>
<feColorMatrix in="SourceAlpha" type="matrix" values="0 0 0 0 0 0 0 0 0 0 0 0 0 0 0 0 0 0 127 0" result="hardAlpha"/>
<feOffset dy="1.69014"/>
<feGaussianBlur stdDeviation="0.676057"/>
<feColorMatrix type="matrix" values="0 0 0 0 0 0 0 0 0 0 0 0 0 0 0 0 0 0 0.0196802 0"/>
<feBlend mode="normal" in2="BackgroundImageFix" result="effect1_dropShadow_1101_36"/>
<feColorMatrix in="SourceAlpha" type="matrix" values="0 0 0 0 0 0 0 0 0 0 0 0 0 0 0 0 0 0 127 0" result="hardAlpha"/>
<feOffset dy="4.06165"/>
<feGaussianBlur stdDeviation="1.62466"/>
<feColorMatrix type="matrix" values="0 0 0 0 0 0 0 0 0 0 0 0 0 0 0 0 0 0 0.0282725 0"/>
<feBlend mode="normal" in2="effect1_dropShadow_1101_36" result="effect2_dropShadow_1101_36"/>
<feColorMatrix in="SourceAlpha" type="matrix" values="0 0 0 0 0 0 0 0 0 0 0 0 0 0 0 0 0 0 127 0" result="hardAlpha"/>
<feOffset dy="7.64772"/>
<feGaussianBlur stdDeviation="3.05909"/>
<feColorMatrix type="matrix" values="0 0 0 0 0 0 0 0 0 0 0 0 0 0 0 0 0 0 0.035 0"/>
<feBlend mode="normal" in2="effect2_dropShadow_1101_36" result="effect3_dropShadow_1101_36"/>
<feColorMatrix in="SourceAlpha" type="matrix" values="0 0 0 0 0 0 0 0 0 0 0 0 0 0 0 0 0 0 127 0" result="hardAlpha"/>
<feOffset dy="13.6422"/>
<feGaussianBlur stdDeviation="5.45689"/>
<feColorMatrix type="matrix" values="0 0 0 0 0 0 0 0 0 0 0 0 0 0 0 0 0 0 0.0417275 0"/>
<feBlend mode="normal" in2="effect3_dropShadow_1101_36" result="effect4_dropShadow_1101_36"/>
<feColorMatrix in="SourceAlpha" type="matrix" values="0 0 0 0 0 0 0 0 0 0 0 0 0 0 0 0 0 0 127 0" result="hardAlpha"/>
<feOffset dy="25.5163"/>
<feGaussianBlur stdDeviation="10.2065"/>
<feColorMatrix type="matrix" values="0 0 0 0 0 0 0 0 0 0 0 0 0 0 0 0 0 0 0.0503198 0"/>
<feBlend mode="normal" in2="effect4_dropShadow_1101_36" result="effect5_dropShadow_1101_36"/>
<feColorMatrix in="SourceAlpha" type="matrix" values="0 0 0 0 0 0 0 0 0 0 0 0 0 0 0 0 0 0 127 0" result="hardAlpha"/>
<feOffset dy="61.0765"/>
<feGaussianBlur stdDeviation="24.4306"/>
<feColorMatrix type="matrix" values="0 0 0 0 0 0 0 0 0 0 0 0 0 0 0 0 0 0 0.07 0"/>
<feBlend mode="normal" in2="effect5_dropShadow_1101_36" result="effect6_dropShadow_1101_36"/>
<feBlend mode="normal" in="SourceGraphic" in2="effect6_dropShadow_1101_36" result="shape"/>
</filter>
<linearGradient id="paint0_linear_1101_36" x1="0" y1="480" x2="552" y2="480" gradientUnits="userSpaceOnUse">
<stop stop-color="#505285"/>
<stop offset="0.12" stop-color="#585E92"/>
<stop offset="0.25" stop-color="#65689F"/>
</linearGradient>
<linearGradient id="paint1_linear_1101_36" x1="353.632" y1="155.745" x2="353.632" y2="419.595" gradientUnits="userSpaceOnUse">
<stop stop-color="#F17259"/>
<stop offset="1" stop-color="#F9B284"/>
</linearGradient>
<linearGradient id="paint2_linear_1101_36" x1="353.632" y1="155.745" x2="353.632" y2="419.595" gradientUnits="userSpaceOnUse">
<stop stop-color="#B29DC4"/>
<stop offset="1" stop-color="#E3DEDF"/>
</linearGradient>
<linearGradient id="paint3_linear_1101_36" x1="353.632" y1="352.411" x2="353.632" y2="616.261" gradientUnits="userSpaceOnUse">
<stop stop-color="#F17259"/>
<stop offset="1" stop-color="#F9B284"/>
</linearGradient>
<linearGradient id="paint4_linear_1101_36" x1="353.632" y1="352.411" x2="353.632" y2="616.261" gradientUnits="userSpaceOnUse">
<stop stop-color="#B29DC4"/>
<stop offset="1" stop-color="#E3DEDF"/>
</linearGradient>
<linearGradient id="paint5_linear_1101_36" x1="353.632" y1="254.078" x2="353.632" y2="517.928" gradientUnits="userSpaceOnUse">
<stop stop-color="#F17259"/>
<stop offset="1" stop-color="#F9B284"/>
</linearGradient>
<linearGradient id="paint6_linear_1101_36" x1="353.632" y1="254.078" x2="353.632" y2="517.928" gradientUnits="userSpaceOnUse">
<stop stop-color="#B29DC4"/>
<stop offset="1" stop-color="#E3DEDF"/>
</linearGradient>
<linearGradient id="paint7_linear_1101_36" x1="353.632" y1="450.745" x2="353.632" y2="714.595" gradientUnits="userSpaceOnUse">
<stop stop-color="#F17259"/>
<stop offset="1" stop-color="#F9B284"/>
</linearGradient>
<linearGradient id="paint8_linear_1101_36" x1="353.632" y1="450.745" x2="353.632" y2="714.595" gradientUnits="userSpaceOnUse">
<stop stop-color="#B29DC4"/>
<stop offset="1" stop-color="#E3DEDF"/>
</linearGradient>
<linearGradient id="paint9_linear_1101_36" x1="285.532" y1="549.078" x2="285.532" y2="812.928" gradientUnits="userSpaceOnUse">
<stop stop-color="#F17259"/>
<stop offset="1" stop-color="#F9B284"/>
</linearGradient>
<clipPath id="clip0_1101_36">
<rect width="552" height="960" fill="white"/>
</clipPath>
</defs>
</svg>
