<svg width="1310" height="1025" viewBox="0 0 1310 1025" fill="none" xmlns="http://www.w3.org/2000/svg">
<rect width="1310" height="1024.65" fill="#00BE6E"/>
<path d="M431.2 670.24V797.444H356.812V436.414H497.653C524.763 436.414 548.568 441.373 569.066 451.291C589.729 461.21 605.598 475.344 616.674 493.693C627.75 511.876 633.287 532.622 633.287 555.931C633.287 591.306 621.137 619.243 596.837 639.741C572.702 660.074 539.228 670.24 496.413 670.24H431.2ZM431.2 609.986H497.653C517.325 609.986 532.285 605.357 542.534 596.1C552.948 586.843 558.155 573.618 558.155 556.427C558.155 538.739 552.948 524.44 542.534 513.529C532.12 502.619 517.738 496.999 499.389 496.668H431.2V609.986Z" fill="#00BE6E"/>
<path d="M431.2 670.24V667.311H428.271V670.24H431.2ZM431.2 797.444V800.373H434.129V797.444H431.2ZM356.812 797.444H353.883V800.373H356.812V797.444ZM356.812 436.414V433.485H353.883V436.414H356.812ZM569.066 451.291L567.79 453.928L567.798 453.932L569.066 451.291ZM616.674 493.693L614.166 495.206L614.172 495.216L616.674 493.693ZM596.837 639.741L598.724 641.981L598.726 641.98L596.837 639.741ZM431.2 609.986H428.271V612.915H431.2V609.986ZM542.534 596.1L540.588 593.911L540.579 593.919L540.57 593.926L542.534 596.1ZM499.389 496.668L499.442 493.739L499.415 493.739H499.389V496.668ZM431.2 496.668V493.739H428.271V496.668H431.2ZM428.271 670.24V797.444H434.129V670.24H428.271ZM431.2 794.515H356.812V800.373H431.2V794.515ZM359.741 797.444V436.414H353.883V797.444H359.741ZM356.812 439.343H497.653V433.485H356.812V439.343ZM497.653 439.343C524.405 439.343 547.758 444.236 567.79 453.928L570.341 448.655C549.377 438.511 525.122 433.485 497.653 433.485V439.343ZM567.798 453.932C587.984 463.622 603.406 477.38 614.166 495.206L619.182 492.179C607.791 473.307 591.473 458.798 570.333 448.651L567.798 453.932ZM614.172 495.216C624.942 512.898 630.358 533.107 630.358 555.931H636.216C636.216 532.138 630.557 510.855 619.176 492.169L614.172 495.216ZM630.358 555.931C630.358 590.553 618.509 617.628 594.948 637.502L598.726 641.98C623.765 620.859 636.216 592.06 636.216 555.931H630.358ZM594.95 637.501C571.505 657.252 538.784 667.311 496.413 667.311V673.169C539.672 673.169 573.899 662.896 598.724 641.981L594.95 637.501ZM496.413 667.311H431.2V673.169H496.413V667.311ZM431.2 612.915H497.653V607.057H431.2V612.915ZM497.653 612.915C517.744 612.915 533.519 608.189 544.497 598.274L540.57 593.926C531.05 602.525 516.905 607.057 497.653 607.057V612.915ZM544.48 598.289C555.662 588.35 561.085 574.244 561.085 556.427H555.226C555.226 572.993 550.234 585.336 540.588 593.911L544.48 598.289ZM561.085 556.427C561.085 538.125 555.676 523.055 544.653 511.507L540.415 515.552C550.22 525.824 555.226 539.353 555.226 556.427H561.085ZM544.653 511.507C533.585 499.912 518.392 494.081 499.442 493.739L499.336 499.597C517.084 499.917 530.654 505.326 540.415 515.552L544.653 511.507ZM499.389 493.739H431.2V499.597H499.389V493.739ZM428.271 496.668V609.986H434.129V496.668H428.271Z" fill="#36353A"/>
<path d="M631.439 277.862H519.807V581.47H444.719V277.862H334.589V217.04H631.439V277.862ZM829.773 381.234L905.613 217.04H987.71L868.069 449.314V581.47H791.728V449.314L672.087 217.04H754.434L829.773 381.234Z" fill="#36353A"/>
<path d="M932.116 640.981H789.291V737.685H956.912V797.444H714.903V436.414H956.416V496.668H789.291V582.71H932.116V640.981Z" fill="#00BE6E"/>
<path d="M932.116 640.981V643.91H935.046V640.981H932.116ZM789.291 640.981V638.052H786.362V640.981H789.291ZM789.291 737.685H786.362V740.615H789.291V737.685ZM956.912 737.685H959.842V734.756H956.912V737.685ZM956.912 797.444V800.373H959.842V797.444H956.912ZM714.903 797.444H711.974V800.373H714.903V797.444ZM714.903 436.414V433.485H711.974V436.414H714.903ZM956.416 436.414H959.346V433.485H956.416V436.414ZM956.416 496.668V499.597H959.346V496.668H956.416ZM789.291 496.668V493.739H786.362V496.668H789.291ZM789.291 582.71H786.362V585.64H789.291V582.71ZM932.116 582.71H935.046V579.781H932.116V582.71ZM932.116 638.052H789.291V643.91H932.116V638.052ZM786.362 640.981V737.685H792.22V640.981H786.362ZM789.291 740.615H956.912V734.756H789.291V740.615ZM953.983 737.685V797.444H959.842V737.685H953.983ZM956.912 794.515H714.903V800.373H956.912V794.515ZM717.832 797.444V436.414H711.974V797.444H717.832ZM714.903 439.343H956.416V433.485H714.903V439.343ZM953.487 436.414V496.668H959.346V436.414H953.487ZM956.416 493.739H789.291V499.597H956.416V493.739ZM786.362 496.668V582.71H792.22V496.668H786.362ZM789.291 585.64H932.116V579.781H789.291V585.64ZM929.187 582.71V640.981H935.046V582.71H929.187Z" fill="#36353A"/>
</svg>
